<?xml version="1.0" encoding="UTF-8"?>
<svg xmlns="http://www.w3.org/2000/svg" xmlns:xlink="http://www.w3.org/1999/xlink" viewBox="0 0 661 665">
  <defs>
    <style>
      .cls-1 {
        fill: none;
      }

      .cls-2 {
        fill: #f06d4f;
      }

      .cls-3, .cls-4 {
        fill: #414141;
      }

      .cls-5 {
        fill: #f3f381;
      }

      .cls-6 {
        isolation: isolate;
      }

      .cls-7 {
        fill: #adc4bf;
      }

      .cls-8 {
        mix-blend-mode: multiply;
      }

      .cls-9 {
        fill: #fff;
      }

      .cls-10 {
        fill: #e1fff9;
      }

      .cls-4 {
        stroke: #000;
        stroke-linejoin: round;
        stroke-width: .67px;
      }

      .cls-11 {
        clip-path: url(#clippath);
      }
    </style>
    <clipPath id="clippath">
      <rect class="cls-1" width="661" height="665"></rect>
    </clipPath>
  </defs>
  <g class="cls-6">
    <g id="Livello_1" data-name="Livello 1">
      <g class="cls-11">
        <g>
          <path class="cls-9" d="M79.89,263.38c-32.44,0-58.84-26.42-58.84-58.9s26.4-58.9,58.84-58.9,58.84,26.43,58.84,58.9-26.4,58.9-58.84,58.9Z"></path>
          <path d="M79.89,145.85c32.29,0,58.55,26.3,58.55,58.61s-26.27,58.61-58.55,58.61-58.55-26.3-58.55-58.61,26.27-58.61,58.55-58.61ZM79.89,145.29c-32.66,0-59.12,26.5-59.12,59.18s26.48,59.18,59.12,59.18,59.12-26.5,59.12-59.18-26.48-59.18-59.12-59.18Z"></path>
          <path d="M79.89,264.16c-32.87,0-59.61-26.77-59.61-59.68s26.74-59.68,59.61-59.68,59.61,26.77,59.61,59.68-26.74,59.68-59.61,59.68ZM79.89,145.78c-32.34,0-58.64,26.33-58.64,58.71s26.3,58.71,58.64,58.71,58.64-26.33,58.64-58.71-26.31-58.71-58.64-58.71Z"></path>
          <g class="cls-8">
            <path class="cls-10" d="M76.76,265.8c9.74-11.06,12.63-35.32,6.09-61.36s-20.57-46.05-34.38-51.17c-21.23,13.95-32.38,40.29-25.84,66.34,6.54,26.05,28.82,43.97,54.13,46.19Z"></path>
          </g>
          <path class="cls-9" d="M89.51,294.86c19.45,0,35.22-15.79,35.22-35.26s-15.77-35.26-35.22-35.26-35.22,15.79-35.22,35.26,15.77,35.26,35.22,35.26Z"></path>
          <path d="M89.51,295.01c-15.83,0-30.26-10.72-34.3-26.77-4.75-18.93,6.75-38.21,25.65-42.98,18.9-4.76,38.16,6.76,42.93,25.68,2.3,9.17.9,18.69-3.94,26.8s-12.56,13.86-21.72,16.16c-2.88.73-5.78,1.07-8.63,1.07v.02ZM89.51,224.49c-2.83,0-5.7.34-8.56,1.06-18.76,4.73-30.17,23.85-25.45,42.62,4.72,18.78,23.82,30.2,42.58,25.48,18.76-4.73,30.17-23.85,25.45-42.62-4-15.91-18.32-26.55-34.02-26.55h.01Z"></path>
          <path d="M89.51,295.35c-15.97,0-30.56-10.82-34.63-27.02-2.33-9.26-.91-18.87,3.98-27.06,4.89-8.2,12.68-13.99,21.93-16.32,9.25-2.33,18.85-.91,27.03,3.98,8.19,4.9,13.98,12.69,16.31,21.95,2.33,9.26.91,18.87-3.98,27.06-4.89,8.2-12.68,13.99-21.93,16.32-2.92.73-5.84,1.08-8.71,1.08ZM89.57,224.82c-2.85,0-5.71.35-8.54,1.06-9,2.27-16.58,7.91-21.33,15.88-4.77,7.97-6.13,17.33-3.87,26.33,2.27,9.01,7.9,16.6,15.86,21.36,7.96,4.77,17.31,6.14,26.31,3.87,9-2.27,16.58-7.91,21.33-15.88,4.77-7.97,6.13-17.33,3.86-26.33s-7.9-16.6-15.86-21.36c-5.46-3.26-11.56-4.94-17.76-4.94h0Z"></path>
          <g class="cls-8">
            <path class="cls-10" d="M86.43,294.72c5.59-6.35,7.25-20.27,3.49-35.23-3.76-14.95-11.81-26.44-19.74-29.37-12.19,8.01-18.59,23.13-14.83,38.08,3.76,14.95,16.54,25.24,31.07,26.52h.01Z"></path>
          </g>
          <path class="cls-9" d="M402.8,642.2c19.45,0,35.22-15.79,35.22-35.26s-15.77-35.26-35.22-35.26-35.22,15.79-35.22,35.26,15.77,35.26,35.22,35.26Z"></path>
          <path d="M402.8,642.33c-15.82,0-30.26-10.72-34.3-26.77-2.3-9.17-.91-18.68,3.94-26.8,4.85-8.12,12.57-13.86,21.72-16.16,18.9-4.76,38.16,6.76,42.93,25.68,4.76,18.92-6.75,38.2-25.65,42.97-2.88.73-5.78,1.07-8.63,1.07h-.01ZM402.86,571.8c-2.87,0-5.77.35-8.62,1.07-9.09,2.29-16.74,7.99-21.55,16.04-4.81,8.05-6.19,17.5-3.91,26.58,2.28,9.09,7.97,16.76,16.02,21.57,8.04,4.82,17.48,6.2,26.56,3.92,18.76-4.73,30.17-23.84,25.45-42.62-2.29-9.1-7.97-16.76-16.02-21.57-5.51-3.3-11.68-4.99-17.93-4.99h.01Z"></path>
          <path d="M402.8,642.68c-15.98,0-30.56-10.82-34.63-27.02-4.8-19.11,6.82-38.58,25.91-43.39,19.09-4.81,38.54,6.83,43.34,25.93,4.8,19.11-6.82,38.58-25.91,43.39-2.92.73-5.84,1.08-8.71,1.08ZM402.79,572.16c-2.79,0-5.64.34-8.47,1.05-9,2.27-16.58,7.91-21.33,15.88-4.77,7.97-6.13,17.33-3.86,26.33,2.27,9.01,7.9,16.6,15.86,21.36,7.96,4.77,17.31,6.14,26.31,3.87,18.57-4.68,29.87-23.62,25.21-42.21-3.96-15.75-18.15-26.29-33.68-26.29h-.02Z"></path>
          <g class="cls-8">
            <path class="cls-10" d="M399.71,642.06c5.59-6.35,7.25-20.27,3.49-35.23-3.76-14.95-11.81-26.44-19.74-29.37-12.19,8.01-18.58,23.13-14.83,38.08,3.76,14.95,16.54,25.24,31.07,26.52h.01Z"></path>
          </g>
          <path class="cls-9" d="M338.42,36.15c9.84,0,17.81-7.98,17.81-17.83S348.26.49,338.42.49s-17.81,7.98-17.81,17.83,7.97,17.83,17.81,17.83Z"></path>
          <path d="M338.42,36.3c-8.04,0-15.37-5.44-17.41-13.59-1.17-4.66-.46-9.49,2-13.62,2.46-4.12,6.37-7.04,11.03-8.21,4.65-1.18,9.47-.46,13.59,2,4.12,2.47,7.04,6.38,8.2,11.04,2.42,9.61-3.43,19.4-13.03,21.82-1.46.37-2.93.55-4.38.55h.01ZM338.44.63c-1.45,0-2.91.18-4.34.54-9.45,2.39-15.2,12.02-12.83,21.47,1.15,4.58,4.01,8.45,8.07,10.87,4.05,2.42,8.8,3.13,13.39,1.97,9.45-2.39,15.2-12.02,12.83-21.47-1.15-4.58-4.01-8.45-8.07-10.87-2.78-1.67-5.88-2.51-9.04-2.51Z"></path>
          <path d="M338.39,36.65c-3.26,0-6.48-.88-9.36-2.6-4.2-2.51-7.16-6.51-8.36-11.25-2.46-9.79,3.49-19.77,13.28-22.24,9.78-2.47,19.75,3.5,22.21,13.3,1.2,4.75.47,9.67-2.04,13.87-2.51,4.2-6.5,7.17-11.24,8.37-1.49.38-3,.56-4.5.56h.01ZM338.41.97c-1.39,0-2.82.17-4.23.53-9.27,2.34-14.9,11.78-12.58,21.06,1.13,4.5,3.95,8.28,7.91,10.66,3.97,2.37,8.63,3.06,13.12,1.93,4.49-1.13,8.27-3.95,10.65-7.92,2.37-3.97,3.06-8.64,1.93-13.14-1.97-7.86-9.05-13.12-16.81-13.12Z"></path>
          <g class="cls-8">
            <path class="cls-10" d="M336.86,36.09c2.83-3.21,3.67-10.25,1.77-17.82-1.9-7.57-5.98-13.37-9.99-14.86-6.17,4.05-9.41,11.7-7.5,19.27,1.9,7.57,8.37,12.76,15.71,13.41h.01Z"></path>
          </g>
          <path class="cls-2" d="M73.12,632.49c9.84,0,17.81-7.98,17.81-17.83s-7.97-17.83-17.81-17.83-17.81,7.98-17.81,17.83,7.97,17.83,17.81,17.83Z"></path>
          <path d="M73.08,632.99c-3.26,0-6.48-.88-9.36-2.6-4.2-2.51-7.16-6.51-8.36-11.26-2.46-9.79,3.49-19.77,13.28-22.24,4.74-1.2,9.66-.47,13.85,2.04,4.2,2.51,7.16,6.51,8.36,11.26,1.2,4.75.47,9.67-2.04,13.87-2.51,4.2-6.5,7.17-11.24,8.37-1.49.38-3,.56-4.5.56h.01ZM73.15,597.31c-1.41,0-2.85.17-4.26.54-9.27,2.34-14.9,11.78-12.58,21.06,2.34,9.28,11.77,14.92,21.04,12.59,4.49-1.13,8.27-3.95,10.65-7.92,2.37-3.97,3.06-8.64,1.93-13.14-1.13-4.5-3.95-8.28-7.91-10.66-2.73-1.63-5.77-2.47-8.86-2.47Z"></path>
          <g class="cls-8">
            <path class="cls-10" d="M71.55,632.43c2.83-3.21,3.67-10.25,1.77-17.82s-5.97-13.37-9.99-14.86c-6.17,4.05-9.41,11.7-7.5,19.27,1.9,7.57,8.37,12.76,15.71,13.41h.01Z"></path>
          </g>
          <path class="cls-9" d="M635.48,612.85c-8.04,0-15.02-5.46-16.99-13.26-2.36-9.38,3.35-18.94,12.73-21.3,1.41-.35,2.85-.54,4.29-.54,8.04,0,15.02,5.46,16.99,13.26,2.36,9.38-3.35,18.94-12.72,21.3-1.41.35-2.85.54-4.29.54Z"></path>
          <path d="M635.51,578.02c7.9,0,14.78,5.37,16.7,13.06,1.13,4.47.45,9.11-1.93,13.07-2.36,3.96-6.12,6.76-10.59,7.89-1.39.35-2.8.53-4.22.53-7.9,0-14.78-5.36-16.72-13.06-1.13-4.47-.44-9.11,1.93-13.07,2.36-3.96,6.12-6.76,10.59-7.89,1.39-.35,2.8-.53,4.22-.53M635.51,577.45c-1.44,0-2.91.17-4.37.55-9.54,2.41-15.33,12.1-12.93,21.65,2.03,8.09,9.29,13.48,17.26,13.48,1.44,0,2.91-.17,4.37-.55,9.54-2.41,15.32-12.1,12.93-21.65-2.03-8.09-9.29-13.48-17.26-13.48Z"></path>
          <path class="cls-7" d="M635.5,613.61c-8.19,0-15.67-5.55-17.75-13.84-2.46-9.79,3.49-19.77,13.28-22.24,9.78-2.47,19.75,3.5,22.21,13.3,1.2,4.75.47,9.67-2.04,13.87-2.51,4.2-6.5,7.17-11.24,8.37-1.49.38-2.99.56-4.47.56h.01ZM635.5,577.94c-1.39,0-2.82.17-4.23.52-9.27,2.34-14.9,11.78-12.58,21.06,2.34,9.28,11.77,14.92,21.04,12.59,4.49-1.13,8.27-3.95,10.65-7.92,2.37-3.97,3.05-8.64,1.93-13.14-1.97-7.86-9.05-13.11-16.81-13.11Z"></path>
          <path d="M635.5,613.76c-8.46,0-15.82-5.74-17.89-13.96-2.49-9.87,3.52-19.93,13.39-22.41,9.86-2.49,19.91,3.53,22.38,13.4,1.21,4.78.48,9.75-2.05,13.98-2.53,4.24-6.56,7.23-11.33,8.44-1.47.38-2.99.56-4.5.56h.01ZM635.5,577.12c-1.46,0-2.95.18-4.42.55-9.71,2.44-15.62,12.35-13.18,22.06,2.03,8.09,9.28,13.74,17.6,13.74,1.49,0,2.98-.18,4.43-.55,4.7-1.19,8.67-4.13,11.15-8.3,2.49-4.17,3.2-9.05,2.02-13.77-2.08-8.23-9.49-13.74-17.62-13.74h.01ZM635.5,612.79c-7.82,0-14.95-5.3-16.94-13.22-2.35-9.35,3.34-18.88,12.68-21.23,1.4-.35,2.84-.54,4.26-.54,8.02,0,14.99,5.43,16.94,13.22,1.14,4.53.44,9.23-1.95,13.24-2.4,4.01-6.2,6.85-10.73,7.99-1.43.35-2.85.52-4.26.52h0ZM635.5,578.09c-1.4,0-2.82.17-4.2.52-9.19,2.32-14.79,11.69-12.47,20.89,2.32,9.2,11.68,14.8,20.87,12.49,4.45-1.12,8.2-3.92,10.56-7.85,2.36-3.95,3.03-8.57,1.92-13.02-1.93-7.66-8.78-13.01-16.67-13.01h0Z"></path>
          <g class="cls-8">
            <path class="cls-10" d="M633.94,613.07c2.83-3.21,3.67-10.25,1.77-17.82s-5.98-13.37-9.99-14.86c-6.17,4.05-9.41,11.7-7.5,19.27s8.37,12.76,15.71,13.41h.01Z"></path>
          </g>
          <path class="cls-4" d="M431.08,525.41c-3.75-3.45-8.69-6.02-13.93-5.78-5.08.23-10.39,1.9-13.93,5.78-16.19,17.74-33.57,34.39-51.98,49.81-4.57,3.82-9.21,7.58-13.91,11.26-.05.03-.09.08-.14.11-8.43,6.46-17.03,12.67-25.84,18.61-8.8,5.95-17.73,11.88-27.41,16.31-3.71,1.43-7.51,2.57-11.42,3.31-2.37.18-4.73.21-7.1.04-2.27-.46-4.49-1.07-6.67-1.86-2.65-1.3-5.17-2.81-7.57-4.5-3.19-2.68-6.1-5.67-8.77-8.88h0c-3.19-4.45-5.94-9.2-8.21-14.18-4.93-12.7-7.35-26.23-9.35-39.66-1.71-11.46-3.23-22.92-5.52-34.27,6.45-3.4,12.82-6.95,19.1-10.66,22.5-13.29,43.99-28.71,63.3-46.38,2.12-1.94,4.21-3.9,6.26-5.89,3.1-2.98,6.12-6.04,9.1-9.17l.14-.12c16.21-17.01,30.62-36.01,41.99-56.5,3.11-5.62,5.99-11.36,8.62-17.21,1.44-2.26,2.22-4.7,2.34-7.33.59-2.62.47-5.24-.35-7.86-1.25-4.58-4.79-9.53-9.05-11.79-4.57-2.42-10.11-3.63-15.18-1.99-4.58,1.48-9.7,4.48-11.78,9.06-7.42,16.49-16.83,32.01-27.73,46.42-3.68,4.67-7.53,9.21-11.51,13.63-11.82,13.13-24.86,25.16-38.77,36.09-.04.03-.09.07-.12.1-15.07,11.44-31.03,21.63-47.56,30.81-1.19-3.17-2.43-6.31-3.74-9.44-6.03-14.47-12.83-28.49-21.1-41.82-7.47-12.03-27.3-47.43-66.54-54.82C40.85,362.32.57,418.02.57,470.26c0,3.07.15,6.1.43,9.09,2.02,21.25,11.07,40.45,24.8,55.24,4.83,5.22,10.26,9.89,16.16,13.91.01,0,.03.02.05.03,15.11,10.28,33.37,16.3,53.02,16.3h.09c8.84,0,17.39-1.23,25.51-3.52,12.37-2.75,24.5-6.84,36.16-11.43,8.69-3.42,17.33-7,25.88-10.75,1.23,6.86,2.25,13.76,3.23,20.66,1.93,13.43,3.91,26.96,8.1,39.92,2.27,7.04,5.08,14.02,8.59,20.55,3.29,6.15,7.44,11.78,11.88,17.16,4.43,5.39,9.62,9.74,15.18,13.95,5.47,4.13,11.54,7,17.95,9.43,6.57,2.49,13.9,3.61,20.89,3.64,4.66.03,9.35-.65,13.92-1.45,3.19-.56,6.33-1.4,9.4-2.45,13.87-4.78,26.24-12.39,38.33-20.51,9.62-6.47,19-13.27,28.2-20.32,2.51-1.92,5.01-3.86,7.49-5.8,20.74-16.27,40.28-34.07,58.4-53.22,2.3-2.43,4.58-4.89,6.85-7.36,3.5-3.84,5.77-8.65,5.77-13.95,0-4.84-2.15-10.61-5.77-13.95h.01ZM157.49,507.31c-15.4,6.45-31.13,12.56-47.46,16.05-2.61.56-5.25,1.05-7.9,1.47-2.28.26-4.58.45-6.89.56h-.22c-1.6,0-3.17-.07-4.73-.19-24.64-2.05-44.73-20.09-49.94-43.72-.02-.08-.03-.16-.06-.24.07-.59.07-.65-.02-.08-.82-3.81-1.24-7.76-1.24-11.82,0-27.64,19.98-50.6,46.27-55.2,3.16-.56,6.41-.85,9.73-.85,25.94,0,40.07,18.54,44.4,23.49,15.35,17.53,31.64,59.28,33.33,63.78-5.06,2.32-10.16,4.57-15.28,6.75h.01Z"></path>
          <g class="cls-8">
            <path d="M294.59,415.73c-11.82,13.13-24.86,25.16-38.77,36.09-.05.04-.09.07-.12.1-15.07,11.44-31.03,21.63-47.56,30.81-1.19-3.17-2.43-6.31-3.74-9.44-6.03-14.47-12.83-28.49-21.11-41.82-7.47-12.03-27.3-47.43-66.54-54.82-5.78-1.08-11.35-1.77-16.71-2.08C34.95,370.78.57,422,.57,470.26c0,3.07.15,6.1.43,9.09,2.02,21.25,11.07,40.45,24.8,55.24,4.7,5.34,10.05,10.07,16.16,13.91.01,0,.03.02.05.03,19.68,12.33,47.26,15.51,86.35.71,59.44-22.52,130.37-72.54,130.37-72.54l43-12.21,15.37-15.06.14-.12-22.65-33.56h0ZM157.49,507.31c-15.4,6.45-31.13,12.56-47.46,16.05-2.61.56-5.25,1.05-7.9,1.47-2.28.26-4.58.45-6.89.56h-.22c-1.6,0-3.17-.07-4.73-.19-24.64-2.05-44.73-20.09-49.94-43.72-.02-.08-.03-.16-.06-.24.07-.59.07-.65-.02-.08-.82-3.81-1.24-7.76-1.24-11.83,0-27.63,19.98-50.6,46.27-55.2,3.16-.56,6.41-.85,9.73-.85,25.94,0,40.07,18.54,44.4,23.49,15.35,17.53,31.64,59.28,33.33,63.78-5.06,2.32-10.16,4.57-15.28,6.75h.01ZM195.15,488.76s-15.03-55.11-47.54-87.39c-16.32-16.2-44.08-25.27-48.89-26.81,5.36.31,11.01.6,16.7,2.08,45.01,11.63,59.07,42.79,66.54,54.82,8.28,13.33,15.07,27.36,21.1,41.82,1.3,3.13,2.55,6.27,3.74,9.44l-11.66,6.03h0Z"></path>
          </g>
          <g class="cls-8">
            <path d="M358.33,619.67c-9.2,7.04-18.57,13.86-28.2,20.32-12.11,8.14-24.47,15.74-38.33,20.51-3.07,1.05-6.2,1.9-9.39,2.45-4.57.8-9.27,1.48-13.92,1.45-6.99-.03-14.32-1.15-20.89-3.64-6.41-2.43-12.47-5.3-17.95-9.43-5.55-4.2-10.74-8.56-15.18-13.95-4.43-5.38-8.57-11-11.88-17.16-3.5-6.53-6.32-13.5-8.59-20.55-4.17-12.96-6.17-26.48-8.1-39.92-.98-6.91-2.01-13.8-3.23-20.66l19.45-9.9s12.72,76.2,36.68,94.24c21.63,16.3,54.71,24.57,119.53-3.8v.02Z"></path>
          </g>
          <g class="cls-8">
            <path d="M272.53,624.81s22.27,9.7,63.35-15.61c41.08-25.32,47.57-33.49,47.57-33.49l40.79-15.03,9.27-11.46-35.63,9.85-12.87-14.65s-59.66,62.59-112.47,80.4h0Z"></path>
          </g>
          <path d="M172.77,500.55l17.15-7.95c1.39-.64,2.75-1.33,4.08-2.08l14.14-7.81"></path>
          <path d="M172.83,500.69l-.13-.26,17.15-7.94c1.38-.64,2.75-1.34,4.08-2.07l14.14-7.81.14.25-14.14,7.81c-1.33.74-2.71,1.44-4.09,2.08l-17.15,7.95Z"></path>
          <path d="M172.98,501l-.41-.88,17.15-7.95c1.37-.64,2.74-1.32,4.06-2.05l14.14-7.81.47.86-14.14,7.81c-1.35.74-2.73,1.44-4.12,2.09l-17.15,7.95h0Z"></path>
          <path d="M182.67,539.13s20.18-8.35,37.97-18.31l-37.97,18.31Z"></path>
          <path d="M182.72,539.26l-.11-.26c.21-.08,20.38-8.46,37.95-18.31l.14.25c-17.58,9.85-37.78,18.24-37.98,18.32h.01Z"></path>
          <path d="M182.85,539.58l-.38-.9c.21-.08,20.36-8.46,37.91-18.29l.48.84c-17.61,9.86-37.82,18.25-38.01,18.34Z"></path>
          <path d="M390.38,198.83l-42.76-66.03,42.54-59.57,42.77,66.03-42.55,59.57Z"></path>
          <path d="M390.38,199.09l-.11-.17-42.82-66.12.06-.08,42.67-59.74.11.17,42.82,66.12-.06.08-42.67,59.74ZM347.79,132.8l42.6,65.78,42.37-59.32-42.6-65.78-42.37,59.32Z"></path>
          <path d="M390.38,199.32c-.16,0-.31-.09-.4-.22l-42.77-66.03c-.11-.17-.1-.39.01-.55l42.54-59.57c.09-.13.26-.21.41-.21.16,0,.31.09.4.22l42.77,66.03c.11.17.1.39-.01.55l-42.54,59.57c-.09.13-.24.21-.4.21h-.01ZM348.2,132.81l42.2,65.17,41.94-58.73-42.2-65.17-41.94,58.73Z"></path>
          <path d="M319.91,202.74l-42.61-65.95,70.38-5.58,42.6,65.96-70.36,5.57Z"></path>
          <path d="M319.83,202.88l-.04-.07-42.74-66.16.24-.02,70.45-5.58.05.07,42.74,66.16-.24.02-70.46,5.58ZM277.55,136.91l42.43,65.69,70.04-5.55-42.43-65.69-70.04,5.55Z"></path>
          <path d="M319.91,203.23c-.16,0-.32-.08-.41-.22l-42.6-65.96c-.09-.15-.1-.33-.02-.48.08-.15.23-.25.4-.27l70.36-5.58c.17-.01.35.07.45.22l42.6,65.96c.09.15.1.33.02.48-.08.15-.23.25-.4.27l-70.36,5.58h-.03ZM278.15,137.19l42.01,65.03,69.27-5.49-42.01-65.03-69.27,5.49Z"></path>
          <path d="M493.02,400.05l-17.99-25.48,43.75-61.27,41.42,29.65-67.18,57.1Z"></path>
          <path d="M493,400.25l-.09-.12-18.06-25.56.06-.08,43.83-61.39.11.08,41.58,29.76-.14.11-67.31,57.2h.01ZM475.2,374.57l17.86,25.27,66.93-56.88-41.17-29.46-43.61,61.07Z"></path>
          <path d="M493.02,400.54h-.06c-.14-.01-.26-.09-.33-.21l-18.01-25.48c-.11-.17-.11-.4,0-.56l43.75-61.26c.16-.22.46-.27.67-.11l41.43,29.65c.13.09.19.23.21.38,0,.15-.06.3-.17.39l-67.18,57.1c-.09.08-.2.11-.32.11h0ZM475.62,374.57l17.49,24.77,66.3-56.34-40.53-29-43.27,60.59h.01Z"></path>
          <path d="M504.32,384.24l-17.99-25.48,43.75-61.27,41.43,29.65-67.19,57.1Z"></path>
          <path d="M504.29,384.44l-.09-.12-18.06-25.57.06-.08,43.83-61.39.11.08,41.58,29.76-.14.11-67.31,57.2h.01ZM486.49,358.76l17.86,25.27,66.93-56.88-41.17-29.46-43.61,61.07Z"></path>
          <path d="M504.31,384.73h-.06c-.14-.01-.26-.09-.33-.21l-18.01-25.48c-.11-.17-.11-.4,0-.56l43.75-61.26c.08-.1.19-.17.32-.19.13-.02.26,0,.36.08l41.44,29.66c.12.09.19.23.2.38,0,.15-.06.3-.17.39l-67.18,57.1c-.09.08-.2.11-.32.11h-.01ZM486.91,358.76l17.49,24.77,66.31-56.34-40.54-29-43.27,60.59h.01Z"></path>
          <g class="cls-8">
            <path class="cls-10" d="M303.58,179.43l35.06-4.46,9.03-43.76,42.94-58.59,42.33,66.65-70.35,4.25-42.68,59.23-16.33-23.31Z"></path>
          </g>
          <g class="cls-8">
            <path class="cls-10" d="M546.86,324.67l-42.54,59.57-18.21,1.45,42.55-59.57,18.2-1.45Z"></path>
            <path d="M485.52,386.03l42.98-60.19h.14l18.81-1.51-42.98,60.18h-.14l-18.83,1.52h.01ZM528.81,326.39l-42.11,58.97,17.47-1.39,42.11-58.97-17.47,1.39Z"></path>
          </g>
          <path class="cls-10" d="M362.8,269.11l-42.77-66.03,42.55-59.57,42.76,66.03-42.54,59.57Z"></path>
          <path d="M362.79,269.62l-.23-.35-42.87-66.2.12-.16,42.79-59.92.23.35,42.87,66.2-.11.16-42.79,59.91ZM320.38,203.09l42.43,65.52,42.19-59.07-42.43-65.52-42.19,59.07Z"></path>
          <path d="M362.8,269.6c-.16,0-.31-.09-.4-.22l-42.77-66.03c-.11-.17-.1-.39.01-.55l42.54-59.57c.09-.12.24-.21.4-.21s.31.09.4.22l42.77,66.03c.11.17.1.39-.01.55l-42.54,59.57c-.09.13-.24.21-.4.21ZM320.62,203.09l42.2,65.17,41.94-58.73-42.2-65.17-41.94,58.73Z"></path>
          <path class="cls-10" d="M405.57,335.15l-42.77-66.05,42.54-59.57,42.77,66.04-42.54,59.57Z"></path>
          <path d="M405.56,335.66l-.23-.35-42.87-66.21.11-.16,42.79-59.91.23.35,42.87,66.21-.11.16-42.79,59.92ZM363.14,269.12l42.43,65.52,42.19-59.07-42.43-65.52-42.19,59.07Z"></path>
          <path d="M405.57,335.63c-.16,0-.31-.09-.4-.22l-42.77-66.03c-.11-.17-.1-.39.01-.55l42.54-59.57c.09-.13.26-.19.41-.21.16,0,.31.09.4.22l42.77,66.03c.11.17.1.39-.01.55l-42.54,59.57c-.09.12-.24.2-.4.2h-.01ZM363.39,269.13l42.2,65.17,41.94-58.73-42.2-65.17-41.94,58.73Z"></path>
          <path class="cls-10" d="M277.49,262.65l-42.76-66.03,42.54-59.57,42.76,66.03-42.54,59.57Z"></path>
          <path d="M277.48,263.16l-.23-.35-42.87-66.2.11-.16,42.79-59.92.23.35,42.87,66.2-.11.16-42.79,59.91ZM235.07,196.63l42.43,65.52,42.19-59.07-42.43-65.52-42.19,59.07Z"></path>
          <path d="M277.49,263.14c-.16,0-.31-.09-.4-.22l-42.77-66.03c-.11-.17-.1-.39.01-.55l42.54-59.57c.09-.12.26-.19.41-.21.16,0,.31.09.4.22l42.77,66.03c.11.17.1.39-.01.55l-42.54,59.57c-.09.13-.24.21-.4.21h-.01ZM235.31,196.63l42.2,65.17,41.94-58.73-42.2-65.17-41.94,58.73Z"></path>
          <path class="cls-10" d="M277.83,262.66l42.19-59.08,42.44,65.53-42.19,59.07-42.44-65.52Z"></path>
          <path d="M320.01,204.09l42.1,65.01-41.83,58.58-42.1-65.01,41.83-58.58ZM320.03,203.08l-42.54,59.57,42.77,66.03,42.54-59.57-42.77-66.03Z"></path>
          <path d="M320.26,329.17c-.16,0-.31-.09-.4-.22l-42.77-66.03c-.11-.17-.1-.39.01-.55l42.54-59.57c.09-.13.27-.21.41-.21.16,0,.31.09.4.22l42.77,66.03c.11.17.1.39-.01.55l-42.54,59.57c-.09.12-.24.21-.4.21h-.01ZM278.08,262.66l42.2,65.17,41.94-58.73-42.2-65.16-41.94,58.73Z"></path>
          <path class="cls-10" d="M234.95,322.22l-42.77-66.03,42.55-59.57,42.76,66.03-42.54,59.57Z"></path>
          <path d="M234.93,322.74l-.23-.35-42.87-66.2.11-.16,42.79-59.92.23.35,42.87,66.2-.11.16-42.79,59.91ZM192.53,256.2l42.43,65.52,42.19-59.07-42.43-65.52-42.19,59.07Z"></path>
          <path d="M234.95,322.71c-.16,0-.31-.09-.4-.22l-42.77-66.03c-.11-.17-.1-.39.01-.55l42.54-59.57c.09-.12.24-.21.4-.21s.31.09.4.22l42.77,66.03c.11.17.1.39-.01.55l-42.54,59.57c-.09.13-.24.21-.4.21ZM192.77,256.2l42.2,65.17,41.94-58.73-42.2-65.17-41.94,58.73Z"></path>
          <path class="cls-10" d="M277.72,388.27l-42.77-66.04,42.54-59.57,42.77,66.04-42.54,59.57Z"></path>
          <path d="M277.7,388.77l-.23-.35-42.87-66.2.11-.16,42.79-59.91.23.35,42.87,66.2-.11.16-42.79,59.92ZM235.29,322.23l42.43,65.52,42.19-59.07-42.43-65.52-42.19,59.07Z"></path>
          <path d="M277.72,388.74c-.16,0-.31-.09-.4-.22l-42.77-66.03c-.11-.17-.1-.39.01-.55l42.54-59.57c.09-.13.26-.21.41-.21.16,0,.31.09.4.22l42.77,66.03c.11.17.1.39-.01.55l-42.54,59.57c-.09.12-.24.2-.4.2h-.01ZM235.54,322.24l42.2,65.17,41.94-58.73-42.2-65.17-41.94,58.73Z"></path>
          <path class="cls-10" d="M320.47,454.3l-42.76-66.03,42.54-59.57,42.76,66.03-42.54,59.57Z"></path>
          <path d="M320.46,454.81l-.23-.35-42.87-66.2.11-.16,42.79-59.92.23.35,42.87,66.2-.11.16-42.79,59.91ZM278.06,388.27l42.43,65.52,42.19-59.07-42.43-65.52-42.19,59.07Z"></path>
          <path d="M320.47,454.79c-.16,0-.31-.09-.4-.22l-42.77-66.03c-.11-.17-.1-.39.01-.55l42.54-59.57c.09-.12.27-.21.41-.21.16,0,.31.09.4.22l42.77,66.03c.11.17.1.39-.01.55l-42.54,59.57c-.09.13-.24.21-.4.21h-.01ZM278.3,388.28l42.2,65.17,41.94-58.73-42.2-65.17-41.94,58.73Z"></path>
          <path class="cls-9" d="M476.04,330.14l-70.82,5.48,42.54-59.57,70.82-5.48-42.54,59.57Z"></path>
          <path d="M404.93,335.79l42.76-59.88h.07l71.11-5.51-42.76,59.88h-.07l-71.12,5.51ZM447.85,276.19l-42.32,59.28,70.44-5.46,42.32-59.28-70.44,5.46Z"></path>
          <path d="M405.23,336.11c-.17,0-.33-.09-.42-.25s-.08-.36.02-.52l42.54-59.57c.08-.11.22-.19.35-.21l70.82-5.48c.19-.01.36.08.46.25.09.16.08.37-.02.52l-42.54,59.57c-.08.11-.22.19-.35.21l-70.82,5.48h-.03ZM448.03,276.52l-41.81,58.54,69.55-5.39,41.81-58.54-69.55,5.39Z"></path>
          <path class="cls-9" d="M546.85,324.66l-70.81,5.48,42.54-59.57,70.82-5.48-42.55,59.57Z"></path>
          <path d="M475.75,330.32l42.76-59.88h.07l71.12-5.51-42.76,59.88h-.07l-71.12,5.51ZM518.67,270.71l-42.32,59.28,70.44-5.46,42.33-59.28-70.44,5.46Z"></path>
          <path d="M476.05,330.64c-.17,0-.33-.09-.42-.25-.09-.16-.08-.36.02-.52l42.54-59.57c.08-.11.22-.19.35-.21l70.82-5.48c.19,0,.37.08.46.25.09.16.08.36-.02.52l-42.54,59.57c-.08.11-.22.19-.35.21l-70.82,5.48h-.03ZM518.85,271.04l-41.81,58.55,69.55-5.39,41.81-58.54-69.55,5.39Z"></path>
          <path class="cls-9" d="M617.67,319.19l-70.82,5.48,42.55-59.57,70.81-5.49-42.54,59.58Z"></path>
          <path d="M546.57,324.82l42.76-59.88h.07l71.12-5.51-42.76,59.88h-.07l-71.12,5.51ZM589.47,265.23l-42.32,59.28,70.44-5.46,42.33-59.27-70.44,5.46Z"></path>
          <path d="M546.85,325.14c-.17,0-.33-.09-.42-.25s-.08-.36.02-.52l42.54-59.57c.08-.11.22-.19.35-.21l70.82-5.48c.19-.01.36.08.46.25.09.16.08.36-.02.52l-42.54,59.57c-.08.11-.22.19-.35.21l-70.82,5.48h-.03ZM589.67,265.56l-41.81,58.55,69.55-5.39,41.81-58.55-69.55,5.39Z"></path>
          <path class="cls-9" d="M575.13,378.76l-70.82,5.48,42.54-59.57,70.82-5.48-42.54,59.57Z"></path>
          <path d="M504.02,384.41l42.76-59.88h.07l71.12-5.51-42.76,59.88h-.07l-71.12,5.51ZM546.93,324.8l-42.33,59.28,70.44-5.46,42.33-59.27-70.44,5.46Z"></path>
          <path d="M504.31,384.73c-.17,0-.33-.09-.42-.25s-.08-.36.02-.52l42.54-59.57c.08-.11.22-.19.35-.2l70.82-5.48c.19-.01.36.08.46.25.09.16.08.36-.02.52l-42.54,59.57c-.08.11-.22.19-.35.2l-70.82,5.48h-.03ZM547.12,325.13l-41.81,58.55,69.55-5.39,41.81-58.55-69.55,5.39Z"></path>
          <path class="cls-9" d="M390.95,449.29l-70.81,5.49,42.54-59.58,70.81-5.48-42.54,59.57Z"></path>
          <path d="M319.85,454.94l42.76-59.88h.07l71.12-5.51-42.76,59.88h-.07l-71.11,5.51ZM362.77,395.34l-42.33,59.28,70.44-5.46,42.32-59.27-70.44,5.46Z"></path>
          <path d="M320.14,455.26c-.17,0-.33-.09-.42-.25-.09-.16-.08-.36.02-.52l42.54-59.57c.08-.11.22-.19.35-.21l70.82-5.48c.19-.01.37.08.46.25.09.16.08.37-.02.53l-42.54,59.57c-.08.11-.22.19-.35.21l-70.82,5.48h-.03ZM362.95,395.66l-41.81,58.55,69.55-5.39,41.81-58.55-69.55,5.39Z"></path>
          <path class="cls-9" d="M461.77,443.81l-70.82,5.48,42.54-59.57,70.82-5.48-42.54,59.57Z"></path>
          <path d="M390.67,449.46l42.76-59.88h.07l71.12-5.51-42.76,59.88h-.07l-71.12,5.51ZM433.58,389.85l-42.33,59.28,70.44-5.46,42.33-59.28-70.44,5.46Z"></path>
          <path d="M390.95,449.78c-.17,0-.33-.09-.42-.25-.09-.16-.08-.37.02-.53l42.54-59.57c.08-.11.22-.19.35-.21l70.82-5.48c.19-.01.36.08.46.25.09.16.08.37-.02.52l-42.54,59.57c-.08.11-.22.19-.35.2l-70.82,5.48h-.04ZM433.77,390.18l-41.81,58.55,69.55-5.39,41.81-58.55-69.55,5.39Z"></path>
          <path class="cls-9" d="M532.59,438.33l-70.82,5.48,42.54-59.57,70.82-5.48-42.54,59.57Z"></path>
          <path d="M461.48,443.98l42.76-59.88h.07l71.12-5.51-42.76,59.88h-.07l-71.12,5.51ZM504.39,384.37l-42.33,59.27,70.44-5.46,42.33-59.28-70.44,5.46Z"></path>
          <path d="M461.77,444.3c-.17,0-.33-.09-.42-.25-.09-.16-.08-.37.02-.53l42.54-59.57c.08-.11.22-.19.35-.21l70.82-5.48c.19-.01.36.08.46.25.09.16.08.37-.02.53l-42.54,59.57c-.08.11-.22.19-.35.21l-70.82,5.48h-.03ZM504.58,384.7l-41.81,58.55,69.55-5.39,41.81-58.55-69.55,5.39Z"></path>
          <path class="cls-9" d="M448.16,275.65l-42.6-65.96,70.36-5.57,42.6,65.95-70.36,5.58Z"></path>
          <path d="M448.08,275.8l-.04-.07-42.74-66.16.24-.02,70.45-5.58.05.07,42.74,66.16-.24.02-70.45,5.58ZM405.81,209.81l42.43,65.69,70.04-5.55-42.43-65.69-70.04,5.55Z"></path>
          <path d="M448.16,276.14c-.16,0-.32-.08-.41-.22l-42.6-65.97c-.09-.15-.1-.33-.02-.48.08-.15.23-.25.4-.27l70.36-5.58c.18-.01.35.07.45.22l42.6,65.96c.09.15.1.33.02.48-.08.15-.23.25-.4.27l-70.36,5.58h-.03ZM406.4,210.11l42.01,65.03,69.27-5.49-42.01-65.03-69.27,5.49Z"></path>
          <path class="cls-9" d="M405.2,209.43l-42.61-65.95,70.37-5.58,42.6,65.95-70.36,5.58Z"></path>
          <path d="M405.12,209.58l-.05-.07-42.74-66.16.24-.02,70.45-5.58.05.07,42.74,66.16-.24.02-70.45,5.58ZM362.85,143.6l42.43,65.69,70.04-5.55-42.43-65.69-70.04,5.55Z"></path>
          <path d="M405.2,209.93c-.16,0-.32-.08-.41-.22l-42.6-65.96c-.09-.15-.1-.33-.02-.48.08-.15.23-.25.4-.27l70.36-5.58c.17-.01.35.07.45.22l42.6,65.96c.09.15.1.33.02.48-.08.15-.23.25-.4.27l-70.36,5.58h-.03ZM363.45,143.89l42.01,65.03,69.27-5.49-42.01-65.03-69.27,5.49Z"></path>
          <path class="cls-9" d="M518.93,270.81l-42.6-65.95,70.36-5.58,42.6,65.96-70.36,5.57Z"></path>
          <path d="M518.85,270.97l-.05-.07-42.74-66.16,70.69-5.6.05.07,42.74,66.16-70.69,5.61ZM476.58,204.98l42.43,65.69,70.04-5.56-42.43-65.69-70.04,5.56Z"></path>
          <path d="M518.93,271.3c-.16,0-.32-.08-.41-.22l-42.6-65.96c-.09-.15-.1-.33-.02-.48.08-.15.23-.25.4-.27l70.36-5.58c.18,0,.35.07.45.22l42.6,65.96c.09.15.1.33.02.48-.08.15-.23.25-.4.27l-70.36,5.58h-.03ZM477.18,205.28l42.01,65.03,69.27-5.49-42.01-65.03-69.27,5.49Z"></path>
          <path class="cls-9" d="M433.21,138.56l-42.6-65.95,70.36-5.58,42.6,65.96-70.36,5.57Z"></path>
          <path d="M433.14,138.71l-.05-.07-42.74-66.16.24-.02,70.45-5.58.05.07,42.74,66.16-.24.02-70.45,5.58ZM390.86,72.72l42.43,65.69,70.04-5.55-42.43-65.69-70.04,5.55Z"></path>
          <path d="M433.21,139.05c-.16,0-.32-.08-.41-.22l-42.6-65.96c-.09-.15-.1-.33-.02-.48.08-.15.23-.25.4-.27l70.36-5.58c.18-.01.35.07.45.22l42.6,65.97c.09.15.1.33.02.48-.08.15-.23.25-.4.27l-70.36,5.58h-.03ZM391.45,73.02l42.01,65.03,69.27-5.49-42.01-65.03-69.27,5.49Z"></path>
          <path d="M589.12,264.89l-42.6-65.95,70.36-5.58,42.6,65.96-70.36,5.57Z"></path>
          <path d="M589.05,265.04l-.05-.07-42.74-66.16.24-.02,70.45-5.58.05.07,42.74,66.16-.24.02-70.45,5.58ZM546.78,199.05l42.43,65.69,70.04-5.55-42.43-65.69-70.04,5.55Z"></path>
          <path d="M589.12,265.38c-.16,0-.32-.08-.41-.22l-42.6-65.97c-.09-.15-.1-.33-.02-.48.08-.15.23-.25.4-.27l70.36-5.58c.17-.01.35.07.45.22l42.6,65.96c.09.15.1.33.02.48-.08.15-.23.25-.4.27l-70.36,5.58h-.03ZM547.37,199.34l42.01,65.03,69.27-5.49-42.01-65.03-69.27,5.49Z"></path>
          <path class="cls-9" d="M546.17,198.67l-42.6-65.95,70.36-5.58,42.6,65.97-70.36,5.57Z"></path>
          <path d="M546.09,198.83l-.05-.07-42.74-66.16,70.69-5.6.05.07,42.74,66.16-70.69,5.6ZM503.81,132.84l42.43,65.69,70.04-5.56-42.43-65.69-70.04,5.56Z"></path>
          <path d="M546.17,199.16c-.16,0-.32-.08-.41-.22l-42.6-65.96c-.09-.15-.1-.33-.02-.48.08-.15.23-.25.4-.27l70.36-5.58c.18-.01.35.07.44.22l42.6,65.96c.09.15.1.33.02.48-.08.15-.23.25-.4.27l-70.36,5.58h-.03ZM504.42,133.14l42.01,65.03,69.27-5.49-42.01-65.03-69.27,5.49Z"></path>
          <path class="cls-9" d="M503.4,132.64l-42.39-65.62,70.38-5.58,42.39,65.62-70.38,5.58Z"></path>
          <path d="M503.33,132.79l-.05-.07-42.52-65.83,70.69-5.6.05.07,42.52,65.83-.24.02-70.45,5.58ZM461.26,67.14l42.21,65.35,70.04-5.55-42.21-65.35-70.04,5.56h0Z"></path>
          <path d="M503.4,133.13c-.16,0-.32-.08-.41-.22l-42.39-65.62c-.09-.15-.1-.33-.02-.48.08-.15.23-.25.4-.27l70.36-5.58c.18,0,.35.07.45.22l42.39,65.62c.09.15.1.33.02.48-.08.15-.23.25-.4.27l-70.36,5.58h-.03ZM461.86,67.44l41.79,64.7,69.27-5.49-41.79-64.7-69.27,5.49Z"></path>
          <path d="M513.79,424.8c-4.78.31-8.69-.59-11-2.53-2.32-1.94-2.77-4.7-1.28-7.75,1.49-3.06,4.77-6.05,9.2-8.43,4.43-2.39,9.51-3.86,14.29-4.17,4.78-.31,8.69.59,11,2.53,2.33,1.94,2.77,4.7,1.28,7.76-1.49,3.06-4.77,6.05-9.2,8.44-4.43,2.37-9.51,3.86-14.29,4.17h0ZM523.13,405.72c-4.07.26-8.52,1.54-12.18,3.51-2.92,1.56-5.06,3.4-5.86,5.05-.8,1.64-.39,3.31,1.14,4.6,1.92,1.61,5.35,2.37,9.43,2.11,4.08-.26,8.52-1.54,12.18-3.5,2.92-1.56,5.06-3.4,5.86-5.05.8-1.64.39-3.32-1.14-4.6-1.91-1.61-5.36-2.37-9.43-2.11Z"></path>
          <path d="M522.37,409.51c1.97-.13,2.74,1.47,1.71,3.58-1.03,2.11-3.47,3.92-5.44,4.04-1.97.12-2.74-1.47-1.71-3.58,1.03-2.11,3.47-3.92,5.44-4.04Z"></path>
          <path class="cls-9" d="M476.06,204.48l-42.6-65.96,70.36-5.57,42.61,65.95-70.37,5.58Z"></path>
          <path d="M475.99,204.63l-.04-.07-42.74-66.16.24-.02,70.45-5.58.05.07,42.73,66.16-.24.02-70.45,5.58ZM433.71,138.64l42.43,65.69,70.05-5.55-42.43-65.69-70.04,5.55Z"></path>
          <path d="M476.06,204.96c-.16,0-.32-.08-.41-.22l-42.6-65.96c-.09-.15-.1-.33-.02-.48.08-.15.23-.25.4-.27l70.36-5.58c.18,0,.35.07.45.22l42.6,65.96c.09.15.1.33.02.48-.08.15-.23.25-.4.27l-70.36,5.58h-.03ZM434.3,138.94l42.01,65.03,69.27-5.49-42.01-65.03-69.27,5.49Z"></path>
          <path class="cls-9" d="M524.68,188.15l-39.46,2.84c-4.06.3-7.95-1.67-10.14-5.09l-22.22-34.77c-1.25-1.95.05-4.53,2.35-4.7l39.46-2.84c4.06-.3,7.95,1.67,10.14,5.09l22.22,34.77c1.25,1.95-.05,4.53-2.35,4.7Z"></path>
          <path d="M484.42,191.16c-3.82,0-7.39-1.94-9.46-5.18l-22.22-34.77c-.62-.96-.67-2.15-.16-3.16.51-1.02,1.49-1.68,2.63-1.76l39.46-2.84c4.12-.29,8.05,1.68,10.27,5.16l22.22,34.77c.62.96.67,2.15.16,3.16-.51,1.02-1.49,1.68-2.63,1.76l-39.46,2.84c-.27.02-.54.04-.81.04h0ZM495.48,143.71c-.26,0-.52,0-.79.03l-39.46,2.84c-1.04.07-1.93.67-2.39,1.6-.47.92-.41,2.01.15,2.88l22.22,34.77c2.17,3.39,6,5.32,10.01,5.02l39.46-2.84c1.04-.07,1.93-.67,2.39-1.6.47-.93.41-2.01-.15-2.88l-22.22-34.77c-2.02-3.16-5.51-5.06-9.22-5.06Z"></path>
          <path d="M484.42,191.5c-3.93,0-7.61-2-9.75-5.34l-22.22-34.77c-.68-1.06-.75-2.38-.18-3.51.57-1.13,1.65-1.86,2.91-1.95l39.46-2.84c4.24-.31,8.29,1.74,10.58,5.31l22.22,34.77c.68,1.06.75,2.37.18,3.5-.57,1.13-1.65,1.86-2.91,1.95l-39.46,2.84c-.27.02-.56.03-.83.03ZM495.48,144.05c-.25,0-.51,0-.76.02l-39.46,2.84c-.91.07-1.7.59-2.11,1.41-.41.82-.36,1.77.14,2.55l22.22,34.77c2.1,3.29,5.8,5.15,9.69,4.87l39.46-2.84c.91-.07,1.7-.59,2.11-1.41.41-.82.36-1.77-.14-2.54l-22.22-34.77c-1.96-3.07-5.34-4.9-8.93-4.9Z"></path>
          <path d="M501.49,180.4c-5.67,0-12.43-3.58-15.45-8.31l-4.86-7.6,1.63-1.05,4.86,7.6c2.84,4.45,9.41,7.76,14.59,7.39,2.3-.17,3.96-1.04,4.66-2.44.72-1.44.41-3.33-.87-5.33l-4.86-7.6,1.63-1.05,4.86,7.6c1.67,2.6,2.01,5.18.97,7.25-1.03,2.06-3.25,3.3-6.26,3.52-.3.02-.6.03-.91.03Z"></path>
          <path d="M476.64,173.76l-6.08-9.5c-1.66-2.6-2.01-5.17-.97-7.25,1.03-2.05,3.25-3.3,6.26-3.52,5.84-.41,13.18,3.3,16.36,8.28l6.08,9.5-1.63,1.05-6.08-9.5c-2.84-4.45-9.38-7.76-14.6-7.38-2.3.17-3.96,1.04-4.66,2.44-.72,1.44-.41,3.33.87,5.33l6.08,9.5-1.63,1.05Z"></path>
          <path class="cls-3" d="M475.75,527.42l-61.38,11.51-26.67,19.51-16.06-27.06,13.88-16.87c5.44-6.61,13.31-10.74,21.84-11.45l52.52-2.61,15.9,26.98h-.01Z"></path>
          <path d="M387.66,558.64l-.08-.14-16.11-27.14.07-.08,13.88-16.88c5.43-6.6,13.42-10.79,21.93-11.49l52.6-2.61,16.04,27.23-.2.03-61.35,11.51-26.77,19.58ZM371.81,531.38l15.93,26.85,26.6-19.44,61.17-11.47-15.75-26.73-52.43,2.61c-8.43.7-16.35,4.85-21.73,11.39l-13.81,16.8h.01Z"></path>
          <path d="M387.7,558.91h-.1c-.14-.02-.25-.11-.32-.23l-16.07-27.06c-.1-.17-.09-.4.05-.56l13.88-16.87c5.48-6.67,13.57-10.9,22.17-11.62l52.53-2.61c.18-.01.35.08.45.24l15.89,26.98c.08.14.09.31.02.45-.07.14-.19.25-.35.27l-61.27,11.48-26.59,19.44c-.08.06-.18.09-.29.09ZM372.23,531.42l15.62,26.31,26.25-19.19c.06-.05.12-.07.19-.08l60.69-11.38-15.39-26.13-52.22,2.6c-8.32.68-16.16,4.79-21.48,11.27l-13.66,16.61h0Z"></path>
          <path class="cls-3" d="M464.51,552.1l-77.52,6.28,16.21-19.71c3.98-4.84,9.75-7.85,15.99-8.35l51.3-4.15c6.16-.5,9.89,6.65,5.96,11.43l-11.94,14.52Z"></path>
          <path d="M386.67,558.54l16.43-19.97c3.98-4.84,9.84-7.9,16.09-8.41l51.3-4.15c2.91-.23,5.55,1.23,6.9,3.81,1.35,2.59,1.04,5.59-.82,7.85l-11.98,14.57h-.06l-77.87,6.31h.01ZM471.09,526.27c-.19,0-.39,0-.58.02l-51.3,4.15c-6.17.5-11.96,3.53-15.88,8.31l-16,19.45,77.12-6.24,11.9-14.47c1.78-2.17,2.08-5.06.79-7.53-1.21-2.3-3.49-3.69-6.04-3.69h-.01Z"></path>
          <path d="M386.98,558.86c-.18,0-.34-.1-.43-.26-.09-.17-.07-.39.06-.54l16.21-19.71c4.04-4.91,9.99-8.02,16.32-8.54l51.3-4.16c3.04-.24,5.82,1.29,7.23,4,1.41,2.71,1.08,5.87-.85,8.23l-11.94,14.52c-.08.1-.21.16-.33.17l-77.52,6.28h-.03ZM471.09,526.61c-.18,0-.37,0-.56.02l-51.3,4.16c-6.08.49-11.78,3.47-15.65,8.18l-15.48,18.82,76.18-6.16,11.81-14.36c1.69-2.05,1.97-4.79.74-7.16-1.14-2.19-3.31-3.51-5.73-3.51Z"></path>
          <path class="cls-10" d="M480.33,497.81l-24.79,23.57-29.98,1.7c-.99.19-2.06-.23-2.61-1.21l-5.99-10.83c-.47-.84-.39-1.88.19-2.66l20.8-20.84c1.06-1.42,1.59,1.14,2.45,2.68l5.98,10.82c.17.31.97.1.97.1l32.98-3.36v.02Z"></path>
          <path d="M425.07,523.43c-.96,0-1.87-.53-2.36-1.4l-5.99-10.83c-.52-.95-.43-2.11.22-2.97l20.82-20.88c.26-.35.56-.52.88-.49.61.08.99.96,1.42,1.97.18.43.38.89.59,1.27l5.97,10.82c.06.05.39.04.65-.03l33.84-3.45-25.46,24.22h-.1l-29.98,1.7c-.17.04-.34.05-.51.05v.02ZM438.56,487.42c-.09,0-.23.11-.36.3l-20.82,20.88c-.49.65-.55,1.58-.14,2.32l5.99,10.83c.46.82,1.38,1.26,2.3,1.06l29.91-1.7,24.1-22.93-32.14,3.28c-.19.04-.99.22-1.25-.25l-5.98-10.82c-.23-.41-.42-.87-.61-1.32-.29-.67-.68-1.6-.98-1.63h-.01Z"></path>
          <path d="M425.08,523.62c-1.05,0-2.03-.56-2.54-1.51l-5.99-10.83c-.56-1.02-.47-2.26.23-3.18.01-.02.02-.03.05-.05l20.78-20.82c.33-.42.68-.62,1.06-.57.73.09,1.13,1.02,1.58,2.09.18.43.38.88.58,1.26l5.94,10.74c.1,0,.31,0,.47-.05.02,0,.05,0,.07-.01l32.98-3.35c.2-.02.4.09.49.29s.05.41-.1.56l-24.79,23.57c-.08.08-.19.13-.31.14l-29.94,1.7c-.18.03-.36.06-.55.06v-.02ZM417.53,508.71c-.44.62-.5,1.44-.14,2.1l5.99,10.82c.41.74,1.26,1.13,2.09.97h.07l29.79-1.69,23.63-22.47-31.53,3.21c-.31.07-1.16.22-1.48-.35l-5.97-10.82c-.23-.41-.43-.89-.63-1.33-.23-.52-.59-1.39-.82-1.51,0,.01-.08.07-.19.22-.01.02-.02.03-.05.05l-20.77,20.82h.02Z"></path>
          <path class="cls-9" d="M439.86,498.36l-2.49-4.53c-1.98-3.62.49-8.08,4.62-8.29l31-1.61c2.14-.11,4.16,1.02,5.2,2.9l2.48,4.53c1.98,3.62-.49,8.08-4.62,8.29l-31,1.61c-2.14.11-4.16-1.02-5.2-2.9Z"></path>
          <path d="M444.76,501.41c-2.07,0-4.02-1.14-5.04-2.98l-2.48-4.53c-.96-1.75-.95-3.82.02-5.56.97-1.74,2.73-2.84,4.72-2.95l31-1.61h.3c2.08,0,4.02,1.14,5.04,2.98l2.49,4.53c.96,1.75.95,3.82-.02,5.56-.97,1.74-2.73,2.84-4.72,2.95l-31,1.61h-.3ZM439.98,498.29c.96,1.75,2.82,2.83,4.79,2.83h.27l31-1.61c1.88-.1,3.56-1.14,4.48-2.8.92-1.65.92-3.63.02-5.28l-2.49-4.53c-1-1.83-2.98-2.95-5.06-2.83l-31,1.61c-1.88.1-3.56,1.14-4.48,2.8-.92,1.65-.92,3.63-.02,5.29l2.49,4.53Z"></path>
          <path d="M444.76,501.75c-2.2,0-4.28-1.21-5.34-3.16l-2.48-4.53c-1.02-1.85-1-4.05.02-5.89,1.03-1.84,2.9-3,4.99-3.12l31-1.61c2.31-.12,4.53,1.12,5.64,3.15l2.49,4.53c1.02,1.85,1,4.05-.02,5.89s-2.9,3-4.99,3.12l-31,1.61h-.31ZM473.28,484.4h-.26l-31,1.61c-1.77.09-3.34,1.07-4.2,2.61-.87,1.55-.87,3.4-.01,4.95l2.49,4.53c.93,1.71,2.79,2.75,4.74,2.65l31-1.61c1.77-.09,3.34-1.07,4.2-2.61.87-1.55.87-3.4.01-4.95l-2.48-4.53c-.9-1.63-2.63-2.66-4.48-2.66h0Z"></path>
          <path d="M443.9,496.1l-1.94-3.95c-1.01-2.08-1.08-3.09,2.22-3.33l27.61-1.69c1.22-.07,2.38.58,2.96,1.65l1.43,2.59c1.68,3.37,2.11,4.5-2.63,4.74l-26.67,1.64c-1.22.07-2.38-.58-2.97-1.65h-.01Z"></path>
          <path d="M465.68,124.32l-.38-15.43-10.01.6-.38-15.42-10,.6-.52-15.65-20.1,1.22,20.63,14.43-10.1.62,20.48,14.2-10.09.62,20.48,14.21Z"></path>
          <path class="cls-10" d="M344.49,396.63l-42.76-66.03,42.54-59.57,42.76,66.03-42.54,59.57Z"></path>
          <path d="M344.48,397.15l-.23-.35-42.87-66.2.11-.16,42.79-59.91.23.35,42.87,66.2-.11.16-42.79,59.92ZM302.07,330.61l42.43,65.52,42.19-59.07-42.43-65.52-42.19,59.07Z"></path>
          <path d="M344.49,397.12c-.16,0-.31-.09-.4-.22l-42.77-66.03c-.11-.17-.1-.39.01-.55l42.54-59.57c.09-.12.26-.19.41-.2.16,0,.31.09.4.22l42.77,66.03c.11.17.1.39-.01.55l-42.54,59.57c-.09.13-.24.2-.4.2h-.01ZM302.31,330.61l42.2,65.17,41.94-58.73-42.2-65.17-41.94,58.73Z"></path>
          <path class="cls-9" d="M528.66,326.11l-42.55,59.57-70.82,5.49-70.81,5.48,42.54-59.57,70.82-5.49,70.82-5.48Z"></path>
          <path d="M344.18,396.82l42.76-59.88h.07l141.94-10.99-42.76,59.88h-.07l-141.93,10.99ZM387.1,337.22l-42.32,59.26,141.26-10.93,42.32-59.28-141.26,10.94h0Z"></path>
          <path d="M344.48,397.14c-.17,0-.33-.09-.42-.25s-.08-.36.02-.52l42.54-59.57c.08-.11.22-.19.35-.21l141.63-10.97c.19,0,.37.08.46.25.09.16.08.36-.02.52l-42.54,59.57c-.08.12-.22.19-.35.21l-70.82,5.48-70.81,5.48h-.03ZM387.28,337.55l-41.8,58.55,69.77-5.4,70.59-5.47,41.81-58.55-140.37,10.87Z"></path>
          <path d="M387.09,336.68l-42.61-65.95,18.71-1.02,42.38,65.44-18.48,1.53Z"></path>
          <path d="M387.01,336.84l-.05-.07-42.74-66.17,19.04-1.04.05.07,42.51,65.63-.24.02-18.57,1.54h0ZM344.73,270.86l42.43,65.68,18.16-1.51-42.2-65.17-18.38.99h-.01Z"></path>
          <path d="M387.09,337.17c-.16,0-.32-.08-.41-.22l-42.6-65.96c-.09-.15-.1-.33-.02-.48.08-.16.23-.25.41-.26l18.71-1.02c.17,0,.34.08.43.22l42.38,65.44c.09.15.1.32.02.48-.08.15-.23.25-.4.27l-18.48,1.54h-.05ZM345.34,271.16l41.99,65.02,17.39-1.45-41.79-64.53-17.59.96Z"></path>
          <path class="cls-9" d="M372.33,388.08c-2.1-1.51-2.59-4.44-1.09-6.53l24.33-34.08c2.26-3.16,5.78-5.16,9.66-5.46l93.78-7.26c1.12-.09,2.18.21,3.07.85,2.1,1.51,2.59,4.44,1.09,6.53l-24.34,34.08c-2.26,3.16-5.78,5.16-9.66,5.46l-93.77,7.26c-1.12.09-2.18-.21-3.07-.84Z"></path>
          <path d="M375.01,389.08c-1,0-1.95-.3-2.76-.88-2.17-1.55-2.67-4.57-1.13-6.73l24.33-34.08c2.28-3.2,5.85-5.22,9.76-5.51l93.78-7.26c1.15-.09,2.24.21,3.16.87,2.17,1.55,2.67,4.57,1.13,6.74l-24.34,34.08c-2.28,3.21-5.85,5.22-9.76,5.51l-93.77,7.26c-.14,0-.26.01-.4.01ZM372.41,387.97c.85.62,1.88.89,2.96.81l93.77-7.26c3.83-.3,7.32-2.26,9.55-5.4l24.34-34.08c1.45-2.03.98-4.87-1.06-6.33-.87-.62-1.89-.9-2.96-.81l-93.78,7.26c-3.83.3-7.32,2.26-9.55,5.4l-24.33,34.08c-1.45,2.03-.98,4.87,1.06,6.33Z"></path>
          <path d="M501.51,336.39c1.55,1.11,2.15,3.38.87,5.18l-24.34,34.08c-2.09,2.92-5.36,4.77-8.94,5.06l-48.01,3.72-45.76,3.54c-.93.07-1.77-.19-2.42-.66-1.55-1.11-2.15-3.38-.87-5.18l24.33-34.08c2.09-2.92,5.36-4.77,8.94-5.06l48.01-3.72,45.77-3.54c.93-.07,1.77.19,2.42.66ZM502.64,334.81c-1.07-.78-2.36-1.12-3.71-1.02l-45.77,3.54-48.01,3.72c-4.16.32-7.95,2.45-10.38,5.86l-24.33,34.08c-1.81,2.53-1.22,6.07,1.32,7.89,1.07.76,2.36,1.12,3.71,1.02l45.76-3.54,48.01-3.72c4.16-.32,7.95-2.45,10.38-5.86l24.34-34.08c1.81-2.53,1.22-6.07-1.32-7.89Z"></path>
          <path class="cls-5" d="M373.46,386.51c-1.09-.79-1.64-2.43-.64-3.82l24.33-34.08c1.93-2.69,4.93-4.39,8.23-4.65l93.78-7.26c.65-.05,1.27.11,1.78.48,1.09.79,1.64,2.43.64,3.82l-24.34,34.08c-1.93,2.69-4.92,4.39-8.23,4.65l-93.77,7.26c-.65.05-1.27-.11-1.78-.48Z"></path>
          <path d="M375.01,387.14c-.59,0-1.16-.18-1.64-.52-.58-.42-1.01-1.06-1.16-1.77-.17-.78,0-1.58.49-2.25l24.33-34.08c1.95-2.73,4.98-4.45,8.34-4.7l93.78-7.26c.68-.05,1.33.13,1.88.51.58.42,1.02,1.06,1.16,1.77.17.78,0,1.58-.49,2.25l-24.34,34.08c-1.95,2.73-4.98,4.45-8.33,4.7l-93.77,7.26h-.24ZM499.39,336.83h-.22l-93.78,7.26c-3.26.25-6.23,1.93-8.12,4.59l-24.33,34.08c-.56.78-.55,1.53-.45,2.03.14.64.52,1.22,1.05,1.6.49.34,1.07.51,1.69.46l93.77-7.26c3.26-.25,6.23-1.93,8.12-4.59l24.34-34.08c.56-.78.55-1.53.45-2.03-.14-.64-.53-1.22-1.05-1.6-.43-.31-.93-.47-1.47-.47h0Z"></path>
          <path d="M375.01,387.48c-.67,0-1.3-.2-1.84-.58-1.29-.92-1.93-2.86-.75-4.5l24.33-34.08c2.01-2.82,5.14-4.58,8.59-4.85l93.78-7.26c.76-.06,1.49.14,2.1.57,1.29.93,1.93,2.87.75,4.5l-24.34,34.08c-2.01,2.82-5.14,4.58-8.59,4.85l-93.77,7.26h-.26ZM373.74,386.11c.42.3.92.43,1.46.4l93.77-7.26c3.16-.24,6.03-1.86,7.87-4.44l24.34-34.08c.82-1.14.38-2.5-.54-3.14-.42-.3-.92-.43-1.46-.4l-93.78,7.26c-3.16.24-6.03,1.86-7.87,4.44l-24.33,34.08c-.82,1.14-.38,2.5.54,3.14Z"></path>
          <path d="M413.94,374.67c-.08,0-.16-.02-.23-.06-.16-.08-.26-.25-.26-.43v-9.05l-8.78,6.02c-.16.1-.36.11-.52.01-.16-.1-.25-.29-.23-.48l1.05-8.58-21.36,7.81-.33-.91,22.1-8.08c.16-.06.34-.04.47.08.14.1.21.27.18.45l-1.01,8.3,8.65-5.93c.15-.1.34-.12.5-.04.16.08.26.25.26.43v9.04l21.86-15.05c.17-.11.39-.11.56,0,.17.11.24.33.18.52l-2.78,9.82,16.85-7.17c.15-.07.32-.05.46.05.14.09.22.24.22.4v4.67l21.06-11.76c.15-.08.33-.08.48,0,.15.09.24.25.24.42v8.98l10.65-.84.08.97-11.17.88c-.12,0-.26-.04-.36-.13-.1-.09-.16-.22-.16-.35v-8.67l-21.06,11.76c-.15.08-.33.08-.48,0-.15-.09-.24-.25-.24-.42v-4.76l-17.1,7.28c-.17.07-.38.05-.51-.08-.14-.13-.19-.32-.15-.5l2.7-9.5-21.52,14.82c-.08.06-.18.08-.27.08v.04Z"></path>
          <path d="M375.01,387.14c-.59,0-1.16-.18-1.64-.52-.58-.42-1.01-1.06-1.16-1.77-.17-.78,0-1.58.49-2.25l24.33-34.08c1.95-2.73,4.98-4.45,8.34-4.7l93.78-7.26c.68-.05,1.33.12,1.88.51.58.42,1.02,1.06,1.16,1.77.17.78,0,1.58-.49,2.25l-24.34,34.08c-1.95,2.73-4.98,4.45-8.33,4.7l-93.77,7.26h-.24ZM499.39,336.83h-.22l-93.78,7.26c-3.26.25-6.23,1.93-8.12,4.59l-24.33,34.08c-.56.78-.55,1.53-.45,2.03.14.64.52,1.22,1.05,1.6.49.34,1.07.51,1.69.46l93.77-7.26c3.26-.25,6.23-1.93,8.12-4.59l24.34-34.08c.56-.78.55-1.53.45-2.03-.14-.64-.53-1.22-1.05-1.6-.43-.31-.93-.47-1.47-.47h0Z"></path>
          <path class="cls-9" d="M500.38,337.97c.71.5,1.06,1.56.42,2.47l-24.34,34.08c-1.76,2.46-4.49,4.01-7.52,4.25l-48.01,3.72-45.76,3.54c-.43.03-.81-.07-1.14-.31-.71-.5-1.06-1.56-.42-2.46l24.33-34.08c1.76-2.46,4.49-4.01,7.51-4.25l48.02-3.72,45.77-3.54c.43-.03.81.07,1.14.31ZM501.51,336.39c-.66-.47-1.49-.73-2.42-.66l-45.77,3.54-48.01,3.72c-3.58.27-6.85,2.12-8.94,5.06l-24.33,34.08c-1.28,1.79-.68,4.06.87,5.18.66.47,1.49.73,2.42.66l45.76-3.54,48.02-3.72c3.58-.27,6.85-2.12,8.94-5.06l24.34-34.08c1.28-1.79.68-4.06-.87-5.18Z"></path>
          <path d="M375.01,388.11c-.8,0-1.55-.24-2.2-.7-1.51-1.08-2.28-3.45-.9-5.38l24.33-34.08c2.12-2.97,5.42-4.83,9.05-5.11l93.78-7.26c.92-.07,1.79.17,2.52.68,1.51,1.08,2.28,3.45.9,5.38l-24.34,34.08c-2.12,2.97-5.42,4.83-9.05,5.11l-93.77,7.26c-.1,0-.22.01-.32.01ZM499.39,335.86c-.1,0-.19,0-.3.01l-93.78,7.26c-3.55.27-6.77,2.09-8.84,4.99l-24.33,34.08c-1.28,1.79-.56,3.98.83,4.98.67.48,1.48.7,2.33.64l93.77-7.26c3.55-.27,6.77-2.09,8.84-4.99l24.34-34.08c1.28-1.79.56-3.98-.83-4.98-.59-.42-1.29-.65-2.03-.65ZM375.01,386.17c-.4,0-.75-.11-1.07-.34-.39-.27-.67-.71-.78-1.18-.11-.51,0-1.05.32-1.49l24.33-34.08c1.78-2.5,4.56-4.06,7.62-4.3l93.78-7.26c.47-.03.88.08,1.24.33.76.55,1.14,1.7.46,2.66l-24.34,34.08c-1.78,2.5-4.56,4.06-7.62,4.3l-93.77,7.26h-.17v.02ZM499.39,337.8h-.15l-93.78,7.26c-2.98.23-5.68,1.76-7.41,4.19l-24.33,34.08c-.35.49-.34.96-.27,1.27.09.4.33.77.66,1.01.3.22.65.32,1.05.27l93.77-7.26c2.98-.23,5.68-1.76,7.41-4.19l24.34-34.08c.59-.82.26-1.8-.39-2.27-.26-.19-.57-.29-.9-.29h0Z"></path>
          <path d="M375.01,386.51c-.47,0-.89-.14-1.27-.4-.9-.65-1.35-2-.54-3.14l24.33-34.08c1.85-2.58,4.71-4.2,7.87-4.44l93.78-7.26c.55-.05,1.04.09,1.46.4.9.65,1.35,2,.54,3.14l-24.34,34.08c-1.85,2.58-4.71,4.2-7.87,4.44l-93.77,7.26h-.19ZM499.4,338.14h-.13l-93.78,7.26c-2.87.22-5.49,1.7-7.16,4.04l-24.33,34.08c-.47.65-.21,1.42.31,1.79.24.17.5.24.82.22l93.77-7.26c2.87-.22,5.48-1.7,7.16-4.04l24.34-34.08c.47-.65.21-1.41-.31-1.79-.2-.15-.43-.22-.71-.22h.01Z"></path>
          <path class="cls-10" d="M253.52,152.15l-42.77-66.03,42.54-59.57,42.77,66.03-42.54,59.57Z"></path>
          <path d="M253.51,152.66l-.23-.35-42.87-66.2.11-.16,42.79-59.91.23.35,42.87,66.2-.11.16-42.79,59.92ZM211.09,86.11l42.43,65.52,42.19-59.07-42.43-65.52-42.19,59.07Z"></path>
          <path d="M253.52,152.64c-.16,0-.31-.09-.4-.22l-42.77-66.03c-.11-.17-.1-.39.01-.55l42.54-59.57c.09-.13.27-.21.41-.21.16,0,.31.09.4.22l42.77,66.03c.11.17.1.39-.01.55l-42.54,59.57c-.09.13-.24.21-.4.21h-.01ZM211.34,86.12l42.2,65.17,41.94-58.73-42.2-65.17-41.94,58.73Z"></path>
          <path class="cls-9" d="M295.92,92.47l-42.6-65.96,70.36-5.57,42.61,65.95-70.38,5.58Z"></path>
          <path d="M295.85,92.62l-.05-.07-42.74-66.16,70.69-5.6.05.07,42.74,66.16-70.69,5.6ZM253.57,26.63l42.43,65.69,70.04-5.56-42.43-65.69-70.04,5.56Z"></path>
          <path d="M295.91,92.96c-.16,0-.32-.08-.41-.22l-42.6-65.96c-.09-.15-.1-.33-.02-.48.08-.15.23-.25.4-.27l70.36-5.58c.17,0,.35.07.44.22l42.6,65.96c.09.15.1.33.02.48-.08.15-.23.25-.4.27l-70.36,5.58h-.03ZM254.16,26.93l42.01,65.03,69.27-5.49-42.01-65.03-69.27,5.49Z"></path>
          <path class="cls-9" d="M324.33,146.67l-70.81,5.48,42.54-59.57,70.82-5.48-42.55,59.57Z"></path>
          <path d="M253.22,152.32l42.76-59.88h.07l71.11-5.51-42.76,59.88h-.07l-71.12,5.51ZM296.14,92.71l-42.33,59.28,70.44-5.46,42.33-59.28-70.44,5.46Z"></path>
          <path d="M253.52,152.64c-.17,0-.33-.09-.42-.25-.09-.16-.08-.36.02-.52l42.54-59.57c.08-.11.22-.19.35-.21l70.82-5.48c.19-.01.37.08.46.25.09.16.08.37-.02.53l-42.54,59.57c-.08.11-.22.19-.35.21l-70.82,5.48h-.03ZM296.32,93.04l-41.81,58.55,69.55-5.39,41.81-58.54-69.55,5.39Z"></path>
          <path d="M297.84,135.91c-.31,0-.62,0-.92-.03-3.01-.22-5.23-1.46-6.26-3.52-1.04-2.08-.7-4.65.97-7.25l4.86-7.6,1.63,1.05-4.86,7.6c-1.28,2-1.58,3.89-.87,5.33.71,1.41,2.36,2.28,4.66,2.44,5.2.38,11.75-2.93,14.6-7.39l4.86-7.6,1.63,1.05-4.86,7.6c-3.02,4.73-9.78,8.31-15.45,8.31h.01Z"></path>
          <path d="M322.69,129.27l-1.63-1.05,6.08-9.5c1.28-2,1.58-3.89.87-5.33-.71-1.42-2.36-2.28-4.66-2.44-5.21-.38-11.74,2.93-14.6,7.39l-6.08,9.5-1.63-1.05,6.08-9.5c3.18-4.99,10.51-8.7,16.36-8.28,3.01.22,5.23,1.46,6.26,3.52,1.04,2.08.7,4.65-.97,7.25l-6.08,9.5Z"></path>
          <path d="M360.54,196.75c-1.07,1.51-2.82,1.37-3.9-.3-1.08-1.67-1.08-4.24-.01-5.73,1.07-1.49,2.82-1.37,3.9.3,1.08,1.67,1.08,4.24.01,5.73Z"></path>
          <path d="M366.01,205.17c-1.07,1.51-2.82,1.37-3.9-.3-1.08-1.67-1.08-4.24-.01-5.73,1.07-1.5,2.82-1.37,3.9.3,1.08,1.67,1.08,4.23.01,5.73Z"></path>
          <path d="M371.48,213.59c-1.07,1.51-2.82,1.37-3.9-.3-1.08-1.67-1.08-4.24-.01-5.73,1.07-1.49,2.82-1.37,3.9.3,1.08,1.67,1.08,4.24.01,5.73Z"></path>
          <path d="M355.3,204.1c-1.07,1.51-2.82,1.37-3.9-.3-1.08-1.67-1.08-4.24-.01-5.73,1.07-1.49,2.82-1.37,3.9.3,1.08,1.67,1.08,4.24.01,5.73Z"></path>
          <path d="M360.76,212.52c-1.07,1.51-2.82,1.37-3.9-.3-1.08-1.67-1.08-4.24-.01-5.73,1.07-1.5,2.82-1.37,3.9.3,1.08,1.67,1.08,4.24.01,5.73Z"></path>
          <path d="M366.22,220.94c-1.07,1.51-2.82,1.37-3.9-.3-1.08-1.67-1.08-4.24-.01-5.73,1.07-1.49,2.82-1.37,3.9.3,1.08,1.67,1.08,4.24.01,5.73Z"></path>
          <path d="M350.04,211.44c-1.07,1.51-2.82,1.37-3.9-.3-1.08-1.67-1.08-4.24-.01-5.73,1.07-1.5,2.82-1.37,3.9.3,1.08,1.67,1.08,4.24.01,5.73Z"></path>
          <path d="M355.52,219.87c-1.07,1.51-2.82,1.37-3.9-.3-1.08-1.67-1.08-4.24-.01-5.73,1.07-1.5,2.82-1.37,3.9.3,1.08,1.67,1.08,4.24.01,5.73Z"></path>
          <path d="M360.98,228.28c-1.07,1.51-2.82,1.37-3.9-.3-1.08-1.67-1.08-4.24-.01-5.73,1.07-1.5,2.82-1.37,3.9.3,1.08,1.67,1.08,4.24.01,5.73Z"></path>
          <path d="M263.42,111.43c-8.08,11.31-21.22,10.33-29.35-2.19-8.13-12.52-8.18-31.85-.1-43.16,8.08-11.31,21.22-10.33,29.35,2.19,8.13,12.52,8.17,31.85.1,43.16Z"></path>
          <path d="M249.83,119.8h-.33c-5.91-.12-11.68-3.88-15.84-10.3-8.22-12.66-8.26-32.27-.08-43.71,3.81-5.33,8.88-8.2,14.32-8.08,5.91.13,11.68,3.88,15.84,10.3,8.22,12.66,8.26,32.27.08,43.71-3.73,5.23-8.69,8.08-13.99,8.08ZM247.57,58.68c-4.98,0-9.66,2.72-13.2,7.68-7.96,11.14-7.91,30.26.11,42.61,3.98,6.14,9.46,9.73,15.05,9.85h.31c4.98,0,9.66-2.72,13.2-7.68,7.96-11.14,7.91-30.26-.11-42.61-3.98-6.14-9.46-9.73-15.05-9.85h-.31Z"></path>
          <path d="M345.62,319.9c-1.07,1.51-2.82,1.37-3.9-.3-1.08-1.67-1.08-4.23-.01-5.73,1.07-1.5,2.82-1.37,3.9.3,1.08,1.67,1.08,4.23.01,5.73Z"></path>
          <path d="M351.09,328.33c-1.07,1.51-2.82,1.37-3.9-.3-1.08-1.67-1.08-4.24-.01-5.73,1.07-1.49,2.82-1.37,3.9.3,1.08,1.67,1.08,4.23.01,5.73Z"></path>
          <path d="M356.55,336.74c-1.07,1.51-2.82,1.37-3.9-.3-1.08-1.67-1.08-4.23-.01-5.73,1.07-1.5,2.82-1.37,3.9.3,1.08,1.67,1.08,4.23.01,5.73Z"></path>
          <path d="M340.37,327.26c-1.07,1.51-2.82,1.37-3.9-.3-1.08-1.67-1.08-4.24-.01-5.73,1.07-1.49,2.82-1.37,3.9.3,1.08,1.67,1.08,4.24.01,5.73Z"></path>
          <path d="M345.85,335.68c-1.07,1.51-2.82,1.37-3.9-.3-1.08-1.67-1.08-4.23-.01-5.73,1.07-1.5,2.82-1.37,3.9.3,1.08,1.67,1.08,4.23.01,5.73Z"></path>
          <path d="M351.31,344.09c-1.07,1.51-2.82,1.37-3.9-.3-1.08-1.67-1.08-4.24-.01-5.73,1.07-1.49,2.82-1.37,3.9.3,1.08,1.67,1.08,4.24.01,5.73Z"></path>
          <path d="M335.13,334.61c-1.07,1.51-2.82,1.37-3.9-.3-1.08-1.67-1.08-4.23-.01-5.73,1.07-1.49,2.82-1.37,3.9.3,1.08,1.67,1.08,4.23.01,5.73Z"></path>
          <path d="M340.59,343.02c-1.07,1.51-2.82,1.37-3.9-.3-1.08-1.67-1.08-4.23-.01-5.73,1.07-1.5,2.82-1.37,3.9.3,1.08,1.67,1.08,4.24.01,5.73Z"></path>
          <path d="M346.06,351.44c-1.07,1.51-2.82,1.37-3.9-.3-1.08-1.67-1.08-4.23-.01-5.73,1.07-1.49,2.82-1.37,3.9.3,1.08,1.67,1.08,4.23.01,5.73Z"></path>
          <path d="M135.19,111.93c3.42,0,6.19-10.01,6.19-22.36s-2.77-22.36-6.19-22.36-6.19,10.01-6.19,22.36,2.77,22.36,6.19,22.36Z"></path>
          <path d="M135.19,113.21c-4.89,0-7.45-11.88-7.45-23.63s2.55-23.63,7.45-23.63c.19,0,2.46-.03,2.66,0,4.51.9,4.8,12.36,4.8,23.63s-.08,22.55-4.51,23.63c-.23.06-2.94,0-2.94,0ZM135.19,68.48c-1.68,0-4.93,7.45-4.93,21.11s3.25,21.11,4.93,21.11,4.93-7.44,4.93-21.11-3.25-21.11-4.93-21.11Z"></path>
          <path d="M129.01,65.83h-5.47v47.55h5.47v-47.55Z"></path>
          <path class="cls-9" d="M227.94,110.77c12.22,0,22.12-9.91,22.12-22.14s-9.9-22.14-22.12-22.14-22.12,9.91-22.12,22.14,9.9,22.14,22.12,22.14Z"></path>
          <path d="M227.94,110.9c-12.28,0-22.27-10-22.27-22.29s9.99-22.29,22.27-22.29,22.27,10,22.27,22.29-9.99,22.29-22.27,22.29ZM227.94,66.62c-12.12,0-21.98,9.87-21.98,22.01s9.86,22.01,21.98,22.01,21.98-9.87,21.98-22.01-9.86-22.01-21.98-22.01Z"></path>
          <path d="M227.94,111.25c-12.46,0-22.61-10.15-22.61-22.63s10.14-22.64,22.61-22.64,22.61,10.15,22.61,22.64-10.14,22.63-22.61,22.63ZM227.94,66.96c-11.93,0-21.64,9.71-21.64,21.66s9.7,21.66,21.64,21.66,21.64-9.71,21.64-21.66-9.7-21.66-21.64-21.66Z"></path>
          <path class="cls-9" d="M186.52,111.2c8.77,0,15.87-10.01,15.87-22.36s-7.11-22.36-15.87-22.36-15.87,10.01-15.87,22.36,7.11,22.36,15.87,22.36Z"></path>
          <path d="M186.52,111.35c-8.84,0-16.02-10.1-16.02-22.51s7.18-22.51,16.02-22.51,16.02,10.1,16.02,22.51-7.18,22.51-16.02,22.51ZM186.52,66.62c-8.68,0-15.74,9.96-15.74,22.22s7.06,22.22,15.74,22.22,15.74-9.97,15.74-22.22-7.06-22.22-15.74-22.22Z"></path>
          <path d="M186.52,111.69c-9.02,0-16.36-10.25-16.36-22.85s7.34-22.85,16.36-22.85,16.36,10.25,16.36,22.85-7.34,22.85-16.36,22.85ZM186.52,66.96c-8.48,0-15.39,9.82-15.39,21.88s6.9,21.88,15.39,21.88,15.39-9.82,15.39-21.88-6.9-21.88-15.39-21.88Z"></path>
          <path d="M186.52,112.47c-9.45,0-17.14-10.61-17.14-23.63s7.68-23.63,17.14-23.63,17.14,10.6,17.14,23.63-7.68,23.63-17.14,23.63ZM186.52,67.74c-8.06,0-14.61,9.46-14.61,21.11s6.56,21.11,14.61,21.11,14.61-9.46,14.61-21.11-6.56-21.11-14.61-21.11Z"></path>
          <path d="M154.99,111.93c6.17,0,11.18-10.01,11.18-22.36s-5-22.36-11.18-22.36-11.17,10.01-11.17,22.36,5,22.36,11.17,22.36Z"></path>
          <path d="M155,113.21c-6.98,0-12.44-10.38-12.44-23.63s5.46-23.63,12.44-23.63c0,0,2.49-.02,2.7,0,6.66.62,9.74,10.8,9.74,23.63,0,11.92-3.35,21.8-9.32,23.62h-3.12ZM155,68.48c-5.37,0-9.91,9.67-9.91,21.11s4.54,21.11,9.91,21.11,9.91-9.67,9.91-21.11-4.54-21.11-9.91-21.11Z"></path>
          <path class="cls-9" d="M188.14,111.2c8.77,0,15.87-10.01,15.87-22.36s-7.11-22.36-15.87-22.36-15.87,10.01-15.87,22.36,7.11,22.36,15.87,22.36Z"></path>
          <path d="M188.14,111.35c-8.84,0-16.02-10.1-16.02-22.51s7.18-22.51,16.02-22.51,16.02,10.1,16.02,22.51-7.18,22.51-16.02,22.51ZM188.14,66.62c-8.68,0-15.74,9.96-15.74,22.22s7.06,22.22,15.74,22.22,15.74-9.97,15.74-22.22-7.06-22.22-15.74-22.22Z"></path>
          <path d="M188.14,111.69c-9.02,0-16.36-10.25-16.36-22.85s7.34-22.85,16.36-22.85,16.36,10.25,16.36,22.85-7.34,22.85-16.36,22.85ZM188.14,66.96c-8.48,0-15.39,9.82-15.39,21.88s6.9,21.88,15.39,21.88,15.39-9.82,15.39-21.88-6.9-21.88-15.39-21.88Z"></path>
          <path class="cls-9" d="M157.69,111.93c6.17,0,11.17-10.01,11.17-22.36s-5-22.36-11.17-22.36-11.17,10.01-11.17,22.36,5,22.36,11.17,22.36Z"></path>
          <path d="M157.69,112.08c-6.24,0-11.31-10.1-11.31-22.51s5.07-22.51,11.31-22.51,11.31,10.1,11.31,22.51-5.07,22.51-11.31,22.51ZM157.69,67.35c-6.08,0-11.03,9.96-11.03,22.22s4.95,22.22,11.03,22.22,11.03-9.96,11.03-22.22-4.95-22.22-11.03-22.22Z"></path>
          <path d="M157.69,112.42c-6.43,0-11.65-10.25-11.65-22.85s5.23-22.85,11.65-22.85,11.65,10.25,11.65,22.85-5.23,22.85-11.65,22.85ZM157.69,67.7c-5.9,0-10.68,9.82-10.68,21.88s4.79,21.88,10.68,21.88,10.68-9.82,10.68-21.88-4.79-21.88-10.68-21.88Z"></path>
          <path class="cls-9" d="M137.85,111.93c3.42,0,6.19-10.01,6.19-22.36s-2.77-22.36-6.19-22.36-6.19,10.01-6.19,22.36,2.77,22.36,6.19,22.36Z"></path>
          <path d="M137.85,112.08c-3.55,0-6.33-9.89-6.33-22.51s2.78-22.51,6.33-22.51,6.33,9.89,6.33,22.51-2.78,22.51-6.33,22.51ZM137.85,67.35c-3.33,0-6.04,9.96-6.04,22.22s2.71,22.22,6.04,22.22,6.04-9.96,6.04-22.22-2.71-22.22-6.04-22.22Z"></path>
          <path d="M137.85,112.42c-4.17,0-6.67-11.62-6.67-22.85s2.5-22.85,6.67-22.85,6.67,11.62,6.67,22.85-2.5,22.85-6.67,22.85ZM137.85,67.7c-3.36,0-5.7,11.53-5.7,21.88s2.34,21.88,5.7,21.88,5.7-11.53,5.7-21.88-2.34-21.88-5.7-21.88Z"></path>
          <path d="M250.36,238.7l-15.46,3.33,5.8,8.73-15.46,3.33,5.8,8.74-15.61,3.52,11.68,17.57,3.93-21.08,5.87,8.84,3.79-20.91,5.87,8.84,3.79-20.9Z"></path>
          <path d="M520.54,307.35c.91-1.62-.16-2.76-2.37-2.57-2.21.19-4.75,1.68-5.67,3.3-.91,1.62.16,2.76,2.37,2.57,2.21-.19,4.76-1.68,5.67-3.3Z"></path>
          <path d="M531.77,306.33c.91-1.62-.16-2.76-2.37-2.57-2.21.2-4.76,1.68-5.67,3.3-.91,1.62.16,2.76,2.37,2.57,2.21-.19,4.75-1.68,5.67-3.3Z"></path>
          <path d="M543,305.32c.91-1.62-.16-2.76-2.37-2.57-2.21.19-4.75,1.68-5.67,3.3-.91,1.62.16,2.76,2.37,2.57,2.21-.19,4.76-1.68,5.67-3.3Z"></path>
          <path d="M524.97,299.44c.91-1.62-.16-2.76-2.37-2.57-2.21.19-4.76,1.68-5.67,3.3-.91,1.62.16,2.76,2.37,2.57,2.21-.19,4.75-1.68,5.67-3.3Z"></path>
          <path d="M536.2,298.42c.91-1.62-.16-2.76-2.37-2.57-2.21.19-4.75,1.68-5.67,3.3-.91,1.62.16,2.76,2.37,2.57,2.21-.19,4.76-1.68,5.67-3.3Z"></path>
          <path d="M547.43,297.41c.91-1.62-.16-2.76-2.37-2.57-2.21.2-4.76,1.68-5.67,3.3-.91,1.62.16,2.76,2.37,2.57,2.21-.19,4.75-1.68,5.67-3.3Z"></path>
          <path d="M529.42,291.53c.91-1.62-.16-2.76-2.37-2.57-2.21.19-4.75,1.68-5.67,3.3-.91,1.62.16,2.76,2.37,2.57,2.21-.19,4.76-1.68,5.67-3.3Z"></path>
          <path d="M540.65,290.51c.91-1.62-.16-2.76-2.37-2.57-2.21.19-4.76,1.68-5.67,3.3-.91,1.62.16,2.76,2.37,2.57,2.21-.19,4.76-1.68,5.67-3.3Z"></path>
          <path d="M551.88,289.48c.91-1.62-.16-2.76-2.37-2.57-2.21.19-4.76,1.68-5.67,3.3s.16,2.76,2.37,2.57,4.76-1.68,5.67-3.3Z"></path>
          <path d="M435.34,427.83c1.2-1.62.34-2.77-1.92-2.57-2.26.21-5.04,1.68-6.24,3.3-1.2,1.62-.34,2.77,1.92,2.57,2.26-.21,5.04-1.68,6.24-3.3Z"></path>
          <path d="M446.73,426.81c1.2-1.62.34-2.77-1.92-2.57-2.25.21-5.04,1.68-6.24,3.3-1.2,1.62-.34,2.77,1.92,2.57,2.26-.21,5.04-1.68,6.24-3.3Z"></path>
          <path d="M458.12,425.79c1.2-1.62.34-2.77-1.92-2.57-2.26.21-5.04,1.68-6.24,3.3s-.34,2.77,1.92,2.57c2.26-.21,5.04-1.68,6.24-3.3Z"></path>
          <path d="M441.18,419.9c1.2-1.62.34-2.77-1.91-2.57-2.26.21-5.04,1.68-6.24,3.3-1.2,1.62-.34,2.77,1.92,2.57,2.26-.2,5.04-1.68,6.24-3.3Z"></path>
          <path d="M452.57,418.88c1.2-1.62.34-2.77-1.92-2.57-2.26.21-5.04,1.68-6.24,3.3-1.2,1.62-.34,2.77,1.92,2.57,2.26-.21,5.04-1.68,6.24-3.3Z"></path>
          <path d="M463.96,417.86c1.2-1.62.34-2.77-1.91-2.57-2.26.21-5.04,1.68-6.24,3.3-1.2,1.62-.34,2.77,1.91,2.57,2.26-.21,5.04-1.68,6.24-3.3Z"></path>
          <path d="M447.03,411.97c1.2-1.62.34-2.77-1.92-2.57-2.25.2-5.04,1.68-6.24,3.3-1.2,1.62-.34,2.77,1.92,2.57,2.26-.21,5.04-1.68,6.24-3.3Z"></path>
          <path d="M458.42,410.95c1.2-1.62.34-2.77-1.92-2.57-2.26.21-5.04,1.68-6.24,3.3s-.34,2.77,1.92,2.57c2.25-.21,5.04-1.68,6.24-3.3Z"></path>
          <path d="M469.8,409.93c1.2-1.62.34-2.77-1.92-2.57-2.25.21-5.04,1.68-6.24,3.3-1.2,1.62-.34,2.77,1.92,2.57,2.26-.21,5.04-1.68,6.24-3.3Z"></path>
          <path class="cls-2" d="M249.96,215.74l3.11-4.36-16.43-8.38,15.48-6.76,3.11-4.36-21.13-12.88-15.48,6.76-13.32-12.74-17.83,4.77-3.11,4.37,13.32,12.74-12.37,2.38-3.11,4.36,18.02,17.25,15.48-6.76,13.31,12.74,20.96-9.14Z"></path>
          <path d="M228.97,225.05l-.07-.07-13.25-12.67-15.49,6.76-.07-.07-18.11-17.33,3.22-4.51h.06l12.1-2.35-13.2-12.64,3.22-4.51h.05l17.91-4.82.06.06,13.25,12.67,15.46-6.75.07.03,21.26,12.96-3.23,4.52h-.03l-15.2,6.65,16.3,8.31-3.24,4.53h-.03l-21.04,9.2h0ZM215.71,211.97l.07.07,13.25,12.67,20.83-9.09,3-4.2-16.56-8.43.27-.13,15.45-6.75,3-4.21-20.94-12.76-15.5,6.77-.07-.07-13.25-12.68-17.71,4.75-3.01,4.22,13.42,12.84-12.58,2.43-3.01,4.21,17.86,17.09,15.48-6.76-.02.02Z"></path>
          <path d="M229,225.37c-.13,0-.24-.05-.33-.14l-13.08-12.51-15.19,6.63c-.18.08-.39.05-.53-.09l-18.01-17.24c-.17-.17-.19-.43-.06-.64l3.11-4.36c.07-.1.18-.17.31-.19l11.45-2.21-12.63-12.09c-.17-.17-.19-.43-.06-.64l3.11-4.36c.07-.09.16-.16.27-.18l17.83-4.78c.16-.05.34,0,.46.11l13.08,12.51,15.19-6.63c.15-.06.31-.06.44.03l21.14,12.88c.11.07.19.18.23.32.03.14,0,.27-.08.38l-3.11,4.36c-.04.07-.12.13-.21.16l-14.54,6.35,15.52,7.91c.12.07.22.18.25.32.03.14,0,.29-.08.4l-3.11,4.36c-.05.07-.13.13-.21.16l-20.96,9.14c-.06.02-.12.05-.19.05h-.02ZM215.69,211.66c.13,0,.24.05.33.14l13.08,12.51,20.54-8.96,2.71-3.79-15.93-8.12c-.17-.08-.27-.26-.26-.44,0-.18.11-.35.3-.43l15.36-6.7,2.74-3.82-20.47-12.48-15.26,6.65c-.18.08-.39.05-.52-.09l-13.11-12.55-17.4,4.67-2.77,3.88,13.01,12.45c.13.12.18.31.13.49-.05.17-.19.31-.38.34l-12.18,2.35-2.76,3.87,17.48,16.72,15.19-6.63c.06-.02.12-.04.19-.04v-.02Z"></path>
          <path class="cls-2" d="M253.07,211.37l-13.31-12.74,15.47-6.76-18.02-17.25-15.48,6.76-13.31-12.74-20.96,9.14,13.32,12.74-15.48,6.76,18.02,17.25,15.48-6.76,13.32,12.74,20.95-9.14Z"></path>
          <path d="M232.09,220.69l-.07-.07-13.25-12.67-15.48,6.76-.07-.07-18.17-17.39,15.48-6.76-13.32-12.74,21.23-9.27.07.07,13.25,12.67,15.49-6.76.07.07,18.18,17.38-15.48,6.76,13.32,12.74-21.23,9.27ZM218.84,207.61l.07.07,13.25,12.67,20.67-9.02-13.32-12.74,15.48-6.76-17.8-17.03-15.48,6.76-.07-.07-13.25-12.67-20.67,9.02,13.32,12.74-15.48,6.76,17.8,17.03,15.48-6.76Z"></path>
          <path d="M232.12,221c-.13,0-.24-.05-.33-.14l-13.08-12.51-15.19,6.63c-.18.08-.39.05-.53-.09l-18.01-17.24c-.11-.11-.17-.27-.14-.43.02-.16.14-.3.29-.37l14.81-6.46-12.78-12.24c-.11-.11-.17-.27-.14-.43.02-.16.14-.3.29-.37l20.96-9.14c.18-.08.39-.05.53.09l13.08,12.51,15.19-6.63c.18-.08.39-.05.52.09l18.02,17.24c.11.11.17.27.14.43-.02.16-.14.3-.29.36l-14.81,6.46,12.78,12.24c.11.11.17.27.14.43-.02.16-.14.3-.29.37l-20.96,9.14c-.06.02-.12.05-.19.05ZM218.8,207.29c.12,0,.24.05.33.14l13.08,12.51,19.99-8.72-12.78-12.24c-.11-.11-.17-.27-.14-.43.02-.16.14-.3.28-.37l14.81-6.46-17.25-16.52-15.19,6.63c-.18.08-.39.04-.52-.09l-13.08-12.51-19.99,8.72,12.78,12.24c.11.11.17.27.14.43-.02.16-.14.3-.29.37l-14.81,6.46,17.25,16.52,15.19-6.63c.06-.02.12-.05.19-.05Z"></path>
          <g class="cls-8">
            <path class="cls-10" d="M249.73,186.61l-48.04,7.98,11.6,15.6,5.52-2.41,13.32,12.74,20.95-9.14-13.31-12.74,15.47-6.76-5.51-5.27Z"></path>
          </g>
          <path d="M609.75,436.86l-7.87-4.03-9.65,28.85-14.76-23.63-7.87-4.03-15.84,37.61,14.75,23.63-17.51,24.8,12.11,27.94,7.86,4.03,17.51-24.82,6.9,19.6,7.86,4.03,23.71-33.58-14.76-23.63,17.51-24.8-19.97-31.97Z"></path>
          <path d="M571.03,552.21l-.11-.06-7.9-4.05-.02-.05-12.14-28.01.05-.07,17.46-24.74-14.74-23.61.03-.07,15.9-37.75,8.04,4.11.02.04,14.6,23.36,9.61-28.71,8.05,4.12.02.03,20.02,32.05-.06.08-17.46,24.74,14.75,23.63-.06.08-23.77,33.68-.11-.06-7.91-4.05-.02-.06-6.81-19.34-17.42,24.69h0ZM563.24,547.9l7.71,3.95,17.6-24.94,6.97,19.8,7.7,3.95,23.58-33.4-14.75-23.63.06-.08,17.46-24.74-19.9-31.86-7.67-3.94-9.69,28.97-.16-.25-14.73-23.59-7.69-3.94-15.75,37.39,14.77,23.64-.06.08-17.47,24.75,12.05,27.83h-.02Z"></path>
          <path d="M570.98,552.52c-.08,0-.15-.01-.22-.06l-7.86-4.03c-.1-.06-.18-.14-.23-.24l-12.11-27.94c-.07-.16-.05-.33.05-.47l17.33-24.55-14.58-23.34c-.08-.14-.1-.3-.04-.45l15.84-37.61c.06-.13.16-.22.29-.26.13-.05.26-.03.39.02l7.86,4.03c.08.05.15.1.19.17l14.21,22.75,9.33-27.86c.05-.14.15-.24.27-.3.12-.06.27-.04.4.01l7.86,4.03c.08.05.15.1.19.17l19.96,31.97c.1.17.1.38-.01.54l-17.33,24.55,14.58,23.34c.1.17.1.38-.01.54l-23.71,33.58c-.14.19-.4.26-.62.15l-7.86-4.03c-.11-.06-.19-.15-.24-.27l-6.58-18.71-16.97,24.04c-.09.14-.24.21-.4.21v.02ZM563.5,547.65l7.33,3.76,17.27-24.47c.1-.15.28-.23.47-.21.18.02.33.15.39.32l6.83,19.42,7.31,3.74,23.27-32.98-14.58-23.34c-.1-.17-.1-.38.01-.54l17.33-24.55-19.73-31.58-7.24-3.71-9.48,28.31c-.06.18-.22.31-.4.33-.18.02-.36-.07-.47-.23l-14.69-23.51-7.27-3.73-15.54,36.89,14.62,23.41c.1.17.1.38-.01.54l-17.36,24.59,11.93,27.53v.02Z"></path>
          <path class="cls-2" d="M601.88,432.83l-17.51,24.82-14.76-23.63-23.69,33.58,14.76,23.63-17.51,24.8,19.96,31.97,17.51-24.8,14.76,23.62,23.7-33.58-14.75-23.62,17.5-24.82-19.97-31.97Z"></path>
          <path d="M563.11,548.26l-20.14-32.23.06-.08,17.46-24.73-14.75-23.63.06-.08,23.83-33.75,14.75,23.62,17.51-24.82,20.14,32.23-.06.08-17.46,24.74,14.76,23.62-.06.08-23.83,33.75-14.75-23.63-17.51,24.82v.02ZM543.33,516.04l19.81,31.71,17.51-24.82,14.75,23.63,23.52-33.33-14.76-23.62.06-.08,17.46-24.74-19.8-31.71-17.51,24.82-14.76-23.62-23.52,33.33,14.75,23.63-.06.08-17.46,24.74v-.02Z"></path>
          <path d="M563.12,548.49h-.01c-.16,0-.31-.09-.4-.23l-19.97-31.97c-.1-.17-.1-.38.01-.54l17.33-24.55-14.58-23.34c-.1-.17-.1-.38.01-.54l23.7-33.58c.09-.14.24-.2.41-.2.16,0,.31.09.4.23l14.37,23,17.09-24.22c.09-.14.24-.19.41-.21.16,0,.31.09.4.23l19.97,31.97c.1.17.1.38-.01.54l-17.33,24.55,14.58,23.34c.1.17.1.38-.01.54l-23.7,33.58c-.09.14-.25.21-.41.21s-.31-.09-.4-.23l-14.37-23-17.09,24.22c-.09.13-.24.21-.4.21ZM543.74,516.05l19.41,31.08,17.09-24.22c.09-.14.24-.22.41-.21.16,0,.31.09.4.23l14.37,23,23.09-32.73-14.58-23.34c-.1-.17-.1-.38.01-.54l17.33-24.55-19.41-31.08-17.09,24.22c-.09.14-.25.22-.41.21-.16,0-.31-.09-.4-.23l-14.37-23-23.09,32.73,14.58,23.34c.1.17.1.38-.01.54l-17.33,24.55Z"></path>
          <path d="M628.71,293.91l1.99,11.77.1.66,3.83,3-2.84,5.51,4.34,3.41,2.84-5.51,3.66-.17.48,3.42,2.84-5.51,3.66-.17,4.63,6.67-2.84,5.51,4.14,3.24-2.84,5.51,4.14,3.24-4.86,16.36-3.66.17-4.14-3.24.82,5.34-3.66.17-4.14-3.24.23,5.65-3.66.17-4.04-3.16c-.16.16.04.49,0,.57l.72,4.68-3.66.17-4.04-3.16.82,5.34-3.66.17-4.14-3.24.82,5.34-3.66.17-3.83-3-.1-.66,2.42-4.68c.05-.08.38,0,.42-.25l-4.04-3.16-.1-.66,2.62-5.1-3.83-3-.1-.66,2.62-5.1-3.83-3-.1-.66,2.55-4.97c.04-.09.52-.02.25-.76l-4.04-3.16,2.84-5.51-4.14-3.24,8.52-16.54,3.66-.17,3.32-2.09,3.66-.17,3.32-2.09,3.66-.17v-.02Z"></path>
          <path d="M612.9,362.88l-.05-.03-3.88-3.04-.11-.75.02-.05,2.42-4.68c.05-.09.15-.11.24-.12.06,0,.09-.02.12-.03l-3.98-3.12-.11-.75.02-.05,2.58-5-3.79-2.97-.11-.75.02-.05,2.58-5-3.79-2.97-.11-.75.02-.05,2.55-4.97c.03-.07.1-.09.17-.11.11-.05.24-.09.09-.5l-4.09-3.22,2.84-5.51-4.14-3.24,8.61-16.71h.08l3.62-.17,3.32-2.09h.03l3.63-.17,3.32-2.09h.03l3.78-.18,2.11,12.5,3.88,3.04-2.84,5.51,4.12,3.23,2.79-5.43h.08l3.79-.18.44,3.11,2.67-5.18h.08l3.74-.18.05.07,4.67,6.73-.03.08-2.78,5.41,4.14,3.24-2.84,5.51,4.13,3.23-.02.09-4.89,16.46-3.81.18-.05-.04-3.85-3.02.79,5.14-3.86.18-.05-.03-3.9-3.06.22,5.48-3.85.18-.04-.03-3.87-3.03s.02.09.02.12c.02.08.03.15.02.22l.74,4.81-3.86.18-.05-.03-3.75-2.95.79,5.14-3.87.18-.04-.03-3.85-3.02.79,5.14-3.86.18h-.01ZM609.25,359.66l3.74,2.93,3.44-.16-.84-5.54,4.38,3.44,3.44-.16-.84-5.54,4.28,3.36,3.44-.16-.71-4.57.02-.05s-.02-.03-.03-.07c-.03-.15-.09-.39.07-.54l.09-.09.1.08,3.99,3.13,3.47-.16-.23-5.81,4.34,3.4,3.44-.16-.84-5.54,4.38,3.44,3.5-.17,4.8-16.17-4.16-3.26,2.84-5.51-4.14-3.24,2.85-5.54-4.53-6.53-3.5.16-3.01,5.83-.52-3.73-3.44.16-2.89,5.59-4.57-3.58,2.84-5.51-3.79-2.97-.1-.71-1.97-11.64-3.49.16-3.32,2.09h-.03l-3.63.17-3.32,2.09h-.03l-3.58.17-8.43,16.36,4.14,3.24-2.84,5.51,3.98,3.12v.03c.24.63,0,.81-.23.9h-.02l-2.52,4.9.08.56,3.88,3.05-2.66,5.16.08.56,3.88,3.04-2.66,5.16.08.56,4.06,3.18-.02.09c-.04.25-.28.3-.4.31h-.04l-2.37,4.61.08.56h0Z"></path>
          <path d="M612.94,363.22c-.1,0-.22-.04-.3-.1l-3.83-3c-.1-.08-.16-.18-.18-.31l-.1-.66c-.01-.1,0-.21.05-.3l2.42-4.68s.02-.03.03-.06l-3.52-2.76c-.1-.08-.16-.18-.18-.31l-.1-.66c-.01-.1,0-.21.04-.3l2.44-4.74-3.51-2.75c-.1-.08-.16-.18-.18-.31l-.1-.66c-.01-.1,0-.21.05-.3l2.44-4.74-3.51-2.75c-.1-.08-.16-.18-.18-.31l-.1-.66c-.01-.1,0-.21.05-.3l2.55-4.97c.07-.14.18-.21.26-.25l-3.92-3.07c-.18-.15-.24-.4-.14-.6l2.66-5.16-3.83-3c-.18-.15-.24-.4-.14-.61l8.52-16.54c.08-.16.24-.25.41-.26l3.53-.17,3.22-2.02c.07-.05.15-.07.24-.07l3.53-.17,3.22-2.02c.07-.04.15-.07.24-.07l3.66-.17c.23-.02.46.16.5.4l2.08,12.24,3.68,2.89c.18.15.24.4.14.61l-2.66,5.16,3.57,2.8,2.57-4.99c.08-.16.24-.25.41-.26l3.66-.17c.24-.01.47.17.5.42l.27,1.91,2.14-4.15c.08-.16.24-.25.41-.26l3.66-.17c.17-.01.33.07.42.21l4.63,6.67c.1.15.11.34.03.5l-2.66,5.16,3.83,3c.18.15.24.4.14.61l-2.66,5.16,3.83,3c.16.13.23.33.17.52l-4.86,16.36c-.06.19-.24.34-.44.34l-3.66.17c-.13,0-.23-.03-.32-.1l-3.18-2.49.63,4.12c.02.14-.01.27-.1.38-.09.1-.22.17-.35.18l-3.66.17c-.12,0-.23-.03-.32-.1l-3.32-2.6.18,4.6c0,.26-.19.49-.47.5l-3.66.17c-.11,0-.23-.03-.32-.1l-3.18-2.49.64,4.13c.02.14-.01.27-.1.38-.09.1-.22.17-.35.18l-3.66.17c-.12,0-.23-.03-.32-.1l-3.08-2.41.63,4.13c.02.14-.01.27-.1.38s-.22.17-.35.18l-3.66.17c-.11,0-.23-.03-.32-.1l-3.18-2.49.63,4.13c.02.14-.01.27-.1.38-.09.1-.22.17-.35.18l-3.66.17h-.02l.02-.02ZM609.57,359.47l3.53,2.77,2.94-.14-.74-4.8c-.03-.19.06-.39.24-.49.17-.1.39-.09.55.03l4,3.14,2.94-.14-.74-4.81c-.03-.19.06-.39.24-.49.17-.1.39-.09.55.03l3.9,3.06,2.94-.14-.64-4.14v-.13c-.04-.17-.15-.57.15-.87.17-.17.45-.19.64-.03l3.9,3.06,3-.14-.21-5.16c0-.19.09-.37.26-.46.17-.09.38-.07.52.05l4,3.14,2.94-.14-.74-4.81c-.03-.19.06-.39.24-.49.17-.1.39-.09.55.03l4,3.14,3.14-.15,4.66-15.72-3.88-3.05c-.18-.15-.24-.4-.14-.6l2.66-5.16-3.82-3c-.18-.15-.24-.4-.14-.61l2.7-5.25-4.31-6.21-3.11.15-2.71,5.26c-.09.18-.3.29-.51.25-.21-.03-.36-.21-.4-.41l-.42-2.98-2.94.14-2.71,5.26c-.07.13-.18.22-.33.25-.14.03-.28,0-.4-.09l-4.35-3.41c-.18-.15-.24-.4-.14-.6l2.66-5.16-3.51-2.75c-.1-.08-.16-.18-.18-.31l-.1-.66-1.93-11.33-3.1.15-3.21,2.02c-.07.05-.15.07-.24.07l-3.54.17-3.21,2.02c-.07.05-.15.07-.24.07l-3.38.16-8.21,15.92,3.82,3c.18.15.24.4.14.61l-2.66,5.16,3.72,2.92c.07.06.12.12.16.22.29.78,0,1.13-.34,1.3l-2.42,4.68.05.31,3.68,2.89c.18.15.24.4.14.6l-2.55,4.95.05.31,3.68,2.89c.18.15.24.4.14.6l-2.55,4.95.05.31,3.89,3.05c.15.11.22.3.18.48-.06.29-.24.47-.56.56l-2.25,4.37.05.31h-.02Z"></path>
          <path class="cls-2" d="M636.99,300.4l-2.62,5.1.1.66,3.83,3-2.84,5.51,4.34,3.41,2.84-5.51,4.14,3.24,2.84-5.51,8.28,6.49-2.84,5.51,4.14,3.24-2.84,5.51,4.14,3.24-8.52,16.54-4.14-3.24-2.84,5.51-4.14-3.24-2.91,5.65-.53.17-4.04-3.16c-.16.16.03.49,0,.57l-2.42,4.68-.52.17-4.04-3.16-2.84,5.51-4.14-3.24-2.84,5.51-3.83-3-.1-.66,2.42-4.68c.04-.08.38,0,.42-.25l-4.04-3.16-.1-.66,2.62-5.1-3.83-3-.1-.66,2.62-5.1-3.83-3-.1-.66,2.55-4.96c.05-.09.52-.02.25-.76l-4.04-3.16,2.84-5.51-4.14-3.24,8.52-16.54,4.14,3.24,2.84-5.51,4.14,3.24,2.84-5.51,8.28,6.49h.02Z"></path>
          <path d="M616.65,362.79l-4.01-3.14-.11-.76.02-.05,2.42-4.68c.04-.09.15-.11.24-.13.06,0,.09-.02.12-.03l-3.98-3.12-.11-.75.02-.05,2.58-5-3.79-2.97-.11-.77.02-.05,2.58-4.99-3.79-2.97-.11-.75.02-.05,2.55-4.96c.03-.07.1-.09.17-.11.11-.05.24-.09.09-.5l-4.09-3.22,2.84-5.51-4.14-3.24,8.65-16.79,4.14,3.24,2.84-5.51,4.14,3.24,2.84-5.51.14.1,8.38,6.56-2.66,5.16.08.56,3.88,3.04-2.84,5.51,4.12,3.23,2.84-5.51,4.14,3.24,2.84-5.51.14.1,8.38,6.56-2.84,5.51,4.14,3.24-2.84,5.51,4.14,3.24-8.65,16.79-4.14-3.24-2.84,5.51-4.14-3.24-2.86,5.55-.65.2-3.92-3.08s.02.09.02.13c.02.1.04.19,0,.27l-2.44,4.74-.65.21-3.96-3.11-2.84,5.51-4.14-3.24-2.84,5.51-.02.06ZM612.9,359.49l3.65,2.87,2.84-5.51,4.14,3.24,2.84-5.51,4.12,3.23.4-.12,2.38-4.64s-.02-.03-.03-.07c-.03-.15-.09-.39.06-.55l.09-.09,4.08,3.2.4-.13,2.97-5.75,4.14,3.24,2.84-5.51,4.14,3.24,8.38-16.28-4.14-3.24,2.84-5.51-4.14-3.24,2.84-5.51-8.05-6.31-2.84,5.51-4.14-3.24-2.84,5.51-4.57-3.58,2.84-5.51-3.79-2.97-.11-.75.02-.05,2.58-5-8.05-6.31-2.84,5.51-4.14-3.24-2.84,5.51-4.14-3.24-8.38,16.28,4.14,3.24-2.84,5.51,3.98,3.12v.03c.24.63,0,.81-.23.9h-.02l-2.52,4.9.08.56,3.88,3.05-2.66,5.16.08.56,3.88,3.04-2.66,5.16.08.56,4.06,3.19-.02.09c-.05.25-.29.3-.4.31h-.05l-2.37,4.61.08.56h-.02Z"></path>
          <path d="M616.6,363.05c-.1,0-.22-.03-.3-.1l-3.83-3c-.1-.08-.16-.18-.18-.31l-.1-.66c-.01-.1,0-.2.05-.3l2.42-4.68s.02-.03.03-.06l-3.52-2.76c-.1-.08-.16-.18-.18-.31l-.1-.66c-.01-.1,0-.21.05-.3l2.44-4.74-3.51-2.75c-.1-.08-.16-.18-.18-.31l-.1-.66c-.01-.1,0-.21.04-.3l2.44-4.74-3.51-2.75c-.1-.08-.16-.18-.18-.31l-.1-.66c-.01-.1,0-.21.05-.3l2.55-4.96c.07-.14.18-.21.26-.25l-3.92-3.07c-.18-.15-.24-.4-.14-.61l2.66-5.16-3.83-3c-.18-.15-.24-.4-.14-.61l8.52-16.54c.07-.13.18-.22.33-.25.14-.03.29,0,.4.09l3.68,2.89,2.57-4.99c.07-.13.18-.22.33-.25.14-.03.28,0,.4.09l3.68,2.89,2.57-4.99c.07-.13.18-.22.33-.25.14-.04.29,0,.4.09l8.28,6.49c.18.15.24.4.14.61l-2.55,4.95.05.31,3.68,2.89c.18.15.24.4.14.61l-2.66,5.16,3.57,2.8,2.57-4.99c.07-.13.18-.22.33-.25.14-.04.29,0,.4.09l3.68,2.89,2.57-4.99c.07-.13.18-.22.33-.25.14-.03.28,0,.4.09l8.28,6.5c.18.15.24.4.14.6l-2.66,5.16,3.82,3c.18.15.24.4.14.61l-2.66,5.16,3.83,3c.18.15.24.4.14.61l-8.52,16.54c-.07.13-.18.22-.33.25-.14.03-.28,0-.4-.09l-3.68-2.89-2.57,4.99c-.07.13-.18.22-.33.25-.14.03-.29,0-.4-.09l-3.68-2.89-2.64,5.12c-.06.11-.16.21-.29.24l-.52.17c-.16.05-.32.02-.45-.08l-3.36-2.64-2.36,4.58c-.06.11-.16.2-.29.24l-.52.17c-.16.04-.32.02-.45-.08l-3.58-2.81-2.57,4.99c-.07.12-.18.22-.33.25-.15.03-.28,0-.4-.09l-3.68-2.89-2.57,4.99c-.07.12-.18.22-.33.25h-.1.06ZM613.22,359.3l3.22,2.52,2.56-4.99c.07-.12.18-.22.33-.25.14-.03.28,0,.4.09l3.68,2.89,2.57-4.99c.07-.13.18-.22.33-.25.14-.03.29,0,.4.09l3.83,3,.09-.02,2.26-4.37c-.04-.18-.11-.56.16-.83.17-.17.45-.19.64-.03l3.83,3,.09-.02,2.82-5.47c.07-.13.18-.22.33-.25.14-.03.28,0,.4.09l3.68,2.89,2.57-4.99c.07-.13.18-.22.33-.25.14-.04.29,0,.4.09l3.68,2.89,8.06-15.66-3.82-3c-.18-.15-.24-.4-.14-.6l2.66-5.16-3.83-3c-.18-.15-.24-.4-.14-.61l2.66-5.16-7.5-5.88-2.57,4.99c-.07.12-.18.22-.33.25-.14.03-.28,0-.4-.09l-3.68-2.89-2.57,4.99c-.07.13-.18.22-.33.25-.14.03-.29,0-.4-.09l-4.34-3.41c-.18-.15-.24-.4-.14-.6l2.66-5.16-3.51-2.75c-.1-.08-.16-.18-.18-.31l-.1-.66c-.01-.1,0-.2.05-.3l2.44-4.74-7.5-5.88-2.57,4.99c-.07.13-.18.22-.33.25-.15.04-.29,0-.4-.09l-3.68-2.89-2.57,4.99c-.07.13-.18.22-.33.25-.15.04-.28,0-.4-.09l-3.68-2.89-8.06,15.66,3.83,3c.18.15.24.4.14.61l-2.66,5.16,3.72,2.92c.07.06.12.13.16.22.28.78,0,1.13-.34,1.3l-2.42,4.68.05.31,3.68,2.89c.18.15.24.4.14.6l-2.55,4.95.05.31,3.68,2.89c.18.15.24.4.14.61l-2.55,4.96.05.31,3.89,3.05c.15.11.22.3.18.48-.06.29-.24.47-.56.56l-2.25,4.37.04.31-.02-.02Z"></path>
          <g class="cls-8">
            <path class="cls-10" d="M578.84,181.46l-44.13,45.84-13.17-19.6-50.22,3.64-24.97-37.84,50.17-3.56-12.77-18.7,95.08,30.21Z"></path>
          </g>
          <path d="M651.28,129.54l-26.02,45.42-5.55,7.81-15.32-22.77-28.93,2.15-29.02-43.98,5.54-7.81,24.63,3.88-16.15-19.88,5.55-7.81,85.27,43Z"></path>
          <path d="M619.7,183.02l-.11-.17-15.28-22.72-28.93,2.15-.05-.07-29.07-44.06,5.65-7.97h.09l24.26,3.85-15.97-19.68,5.68-8,.11.06,85.4,43.07-.08.14-26.02,45.42-5.68,7.99h-.01ZM604.46,159.85l.05.07,15.21,22.61,5.43-7.65,25.94-45.27-85.03-42.88-5.42,7.62,16.32,20.09-24.9-3.93-5.44,7.66,28.93,43.83,28.93-2.15h-.01Z"></path>
          <path d="M619.7,183.26c-.16,0-.31-.08-.4-.22l-15.16-22.54-28.64,2.13c-.18,0-.34-.07-.45-.22l-29.03-43.98c-.11-.17-.1-.39,0-.55l5.55-7.82c.1-.15.29-.23.47-.19l23.38,3.69-15.35-18.9c-.14-.17-.15-.41-.02-.58l5.55-7.82c.14-.19.4-.26.62-.15l85.27,43c.11.06.21.17.25.3.03.13.02.26-.05.38l-26.02,45.42-5.58,7.85c-.09.13-.24.21-.4.21h.01ZM604.38,159.51c.16,0,.31.08.4.22l14.92,22.2,5.14-7.24,25.75-44.94-84.43-42.59-5.1,7.17,15.91,19.6c.13.16.15.38.05.55-.1.17-.3.26-.49.24l-24.33-3.84-5.19,7.29,28.69,43.47,28.64-2.13h.05Z"></path>
          <path class="cls-2" d="M655.53,123.58l-30.27,51.38-15.33-22.78-28.93,2.16-29.03-43.98,28.88-2.08-14.84-21.73,89.52,37.04Z"></path>
          <path d="M625.27,175.23l-.12-.19-15.28-22.72-28.93,2.15-.04-.07-29.16-44.19.24-.02,28.63-2.05-14.98-21.93.45.18,89.68,37.11-.08.14-30.4,51.57v.02ZM610.01,152.03l.04.07,15.2,22.59,30.08-51.03-88.93-36.8,14.72,21.55-28.88,2.08,28.85,43.71,28.93-2.15h-.01Z"></path>
          <path d="M625.26,175.44c-.16,0-.31-.08-.4-.22l-15.16-22.54-28.64,2.13c-.18.01-.34-.07-.45-.22l-29.03-43.98c-.09-.15-.1-.33-.03-.48.08-.16.23-.26.4-.27l28.04-2.01-14.38-21.04c-.12-.18-.11-.41.02-.58.14-.17.36-.23.56-.15l89.52,37.04c.12.06.23.16.27.3.05.14.03.28-.04.4l-30.27,51.38c-.08.15-.24.23-.4.24ZM609.93,151.7c.16,0,.31.08.4.22l14.89,22.15,29.6-50.24-87.5-36.21,13.93,20.39c.1.15.11.33.03.49-.08.16-.23.26-.4.27l-28.05,2.01,28.41,43.06,28.64-2.13h.03Z"></path>
          <path class="cls-10" d="M411.53,279.64l-18.84-29.45c-.75-1.16-2.77-1.11-3.64.1l-2.88,4.04c-.83,1.16-.9,2.57-.18,3.68l18.84,29.45c.75,1.16,2.77,1.11,3.64-.1l2.89-4.04c.83-1.16.9-2.57.18-3.67Z"></path>
          <path d="M406.53,288.58h-.07c-.81-.02-1.49-.38-1.87-.97l-18.84-29.44c-.78-1.21-.71-2.75.19-3.99l2.88-4.04c.49-.67,1.35-1.08,2.24-1.06.81.02,1.49.38,1.87.97l18.84,29.44c.78,1.21.71,2.75-.19,3.99l-2.88,4.04c-.47.66-1.3,1.06-2.17,1.06ZM390.99,249.64c-.68,0-1.33.31-1.7.82l-2.88,4.04c-.75,1.06-.82,2.35-.17,3.36l18.84,29.44c.27.43.79.7,1.4.71.7.02,1.38-.3,1.76-.82l2.88-4.04c.75-1.06.82-2.35.17-3.36l-18.84-29.44c-.27-.43-.79-.7-1.4-.71h-.06Z"></path>
          <path d="M406.53,288.79h-.08c-.88-.02-1.62-.41-2.04-1.06l-18.84-29.44c-.82-1.29-.74-2.9.19-4.22l2.88-4.04c.53-.73,1.45-1.15,2.41-1.15.88.02,1.62.41,2.04,1.06l18.84,29.44c.82,1.29.74,2.9-.19,4.22l-2.89,4.04c-.51.71-1.39,1.15-2.33,1.15ZM390.99,249.83c-.63,0-1.21.29-1.54.74l-2.88,4.04c-.72,1-.79,2.18-.17,3.14l18.84,29.44c.24.38.7.61,1.24.62.65.01,1.25-.26,1.6-.74l2.89-4.04c.72-1,.79-2.18.17-3.14l-18.84-29.44c-.24-.38-.7-.61-1.24-.62h-.06Z"></path>
          <path d="M405.13,276.88c.72-1.28.5-2.77-.49-3.33-.99-.56-2.38.02-3.1,1.3-.72,1.28-.5,2.77.49,3.33.99.56,2.38-.02,3.1-1.3Z"></path>
          <path d="M401.24,271.12c.72-1.28.5-2.77-.49-3.33-.99-.56-2.38.02-3.11,1.3-.72,1.28-.5,2.77.49,3.33.99.56,2.38-.02,3.11-1.3Z"></path>
          <path d="M395.52,260.8c.94-2.22.31-4.62-1.41-5.35-1.72-.73-3.88.48-4.82,2.7-.94,2.22-.31,4.62,1.41,5.35,1.72.73,3.88-.48,4.82-2.7Z"></path>
          <path d="M391.76,263.88c-.31,0-.62-.05-.91-.15-.75-.25-1.36-.81-1.73-1.6-.51-1.08-.54-2.45-.05-3.77.87-2.33,3.07-3.72,4.91-3.09.75.25,1.36.81,1.73,1.6.51,1.09.54,2.45.05,3.77-.73,1.95-2.4,3.24-4,3.24ZM393.05,255.4c-1.49,0-3.04,1.22-3.73,3.06-.46,1.24-.45,2.53.03,3.55.34.72.89,1.22,1.57,1.45,1.7.57,3.74-.74,4.56-2.92.46-1.24.45-2.53-.03-3.55-.34-.72-.89-1.22-1.57-1.45-.27-.09-.55-.14-.83-.14Z"></path>
          <path d="M391.75,264.23c-.34,0-.68-.06-1.02-.17-.83-.29-1.53-.91-1.94-1.78-.56-1.16-.58-2.64-.06-4.04.92-2.5,3.33-3.98,5.35-3.3.83.29,1.53.91,1.94,1.78.56,1.16.58,2.64.06,4.04-.78,2.09-2.58,3.47-4.32,3.47h-.01ZM393.05,255.74c-1.35,0-2.77,1.13-3.4,2.84-.42,1.15-.42,2.35.02,3.28.3.63.78,1.07,1.37,1.28,1.53.51,3.38-.71,4.13-2.72.42-1.15.42-2.35-.02-3.28-.3-.63-.78-1.07-1.37-1.28-.24-.08-.48-.11-.73-.11h0Z"></path>
          <path d="M261.06,355.13c3.47,23.31-7.92,42.2-25.43,42.2s-34.5-18.89-37.96-42.2c-3.47-23.31,7.93-42.2,25.43-42.2s34.5,18.89,37.96,42.2Z"></path>
          <path d="M235.63,397.48c-17.55,0-34.64-18.98-38.11-42.33-2.01-13.53.83-25.92,7.8-34,4.71-5.47,10.85-8.37,17.76-8.37,17.54,0,34.63,18.99,38.11,42.33,2.01,13.53-.83,25.92-7.8,34-4.71,5.47-10.85,8.37-17.76,8.37ZM223.09,313.07c-6.82,0-12.9,2.85-17.55,8.26-6.81,7.91-9.7,20.54-7.73,33.78,3.44,23.21,20.41,42.08,37.82,42.08,6.82,0,12.9-2.85,17.55-8.26,6.81-7.91,9.7-20.53,7.73-33.77-3.44-23.21-20.41-42.09-37.82-42.09Z"></path>
          <path d="M235.63,397.82c-17.71,0-34.95-19.12-38.44-42.62-2.02-13.62.84-26.12,7.88-34.28,4.78-5.55,11.01-8.48,18.03-8.48,17.71,0,34.95,19.12,38.44,42.62,2.02,13.62-.84,26.12-7.88,34.28-4.78,5.55-11.01,8.48-18.03,8.48ZM223.09,313.41c-6.72,0-12.7,2.82-17.29,8.15-6.75,7.83-9.61,20.35-7.65,33.5,3.42,23.05,20.24,41.79,37.48,41.79,6.72,0,12.7-2.82,17.29-8.15,6.75-7.83,9.61-20.35,7.65-33.5-3.42-23.05-20.24-41.79-37.48-41.79Z"></path>
          <path class="cls-2" d="M255.5,357.22c3.47,23.31-7.92,42.2-25.43,42.2s-34.5-18.89-37.96-42.2c-3.47-23.31,7.93-42.2,25.43-42.2s34.5,18.89,37.96,42.2Z"></path>
          <path d="M230.08,399.57c-17.55,0-34.64-18.98-38.11-42.32-2.01-13.53.83-25.92,7.8-34,4.71-5.47,10.86-8.37,17.76-8.37,17.55,0,34.64,18.98,38.11,42.33,2.01,13.53-.83,25.92-7.8,34-4.71,5.47-10.85,8.37-17.76,8.37ZM217.55,315.16c-6.82,0-12.9,2.85-17.55,8.26-6.81,7.91-9.7,20.53-7.73,33.78,3.44,23.21,20.41,42.08,37.82,42.08,6.82,0,12.9-2.85,17.55-8.26,6.81-7.91,9.7-20.53,7.73-33.77-3.44-23.21-20.41-42.09-37.82-42.09Z"></path>
          <path d="M230.08,399.91c-17.71,0-34.95-19.12-38.44-42.62-2.02-13.62.84-26.12,7.88-34.28,4.78-5.55,11.01-8.48,18.03-8.48,17.71,0,34.95,19.12,38.44,42.62,2.02,13.62-.84,26.12-7.88,34.28-4.78,5.55-11.01,8.48-18.03,8.48ZM217.55,315.5c-6.72,0-12.7,2.82-17.29,8.15-6.75,7.83-9.61,20.35-7.65,33.5,3.42,23.05,20.24,41.79,37.48,41.79,6.71,0,12.7-2.82,17.29-8.15,6.75-7.83,9.61-20.35,7.65-33.5-3.42-23.05-20.24-41.79-37.48-41.79Z"></path>
          <g class="cls-8">
            <path class="cls-10" d="M255.51,357.22c3.47,23.31-7.92,42.2-25.43,42.2s-34.5-18.89-37.96-42.2c-3.47-23.31,7.93-42.2,25.43-42.2s34.5,18.89,37.96,42.2Z"></path>
            <path d="M230.08,399.71c-17.62,0-34.76-19.04-38.24-42.45-2.02-13.56.84-26,7.83-34.12,4.74-5.5,10.92-8.41,17.87-8.41,17.61,0,34.76,19.04,38.24,42.45,2.02,13.56-.84,26-7.83,34.12-4.74,5.5-10.92,8.41-17.87,8.41ZM217.55,315.3c-6.78,0-12.82,2.84-17.44,8.22-6.79,7.88-9.66,20.45-7.7,33.66,3.43,23.14,20.34,41.96,37.68,41.96,6.78,0,12.82-2.84,17.45-8.22,6.78-7.88,9.66-20.45,7.7-33.66-3.43-23.14-20.34-41.96-37.68-41.96Z"></path>
          </g>
        </g>
      </g>
    </g>
  </g>
</svg>
